<svg width="47" height="31" viewBox="0 0 47 31" fill="none" xmlns="http://www.w3.org/2000/svg">
<path fill-rule="evenodd" clip-rule="evenodd" d="M4.8286 30.3703C3.0156 31.208 0.908604 29.8943 0.66827 27.771L0.60527 27.1877L0.460601 25.664L0.308936 23.6923L0.206271 21.94L0.145602 20.6473L0.0989332 19.2637L0.0616024 17.7913L0.0429332 16.235L0.042933 14.6413L0.061602 13.1317L0.115267 11.0153L0.166601 9.70867L0.259935 7.919L0.4046 5.86567L0.549268 4.22067L0.675264 3.01434C0.908597 0.99367 2.8756 -0.186996 4.6746 0.639004L6.09327 1.31567L6.82827 1.682L8.09993 2.33533L9.05193 2.844L10.0833 3.40867L11.1893 4.03167L12.3629 4.713L13.6043 5.455L14.9063 6.25767L16.5163 7.282L17.9979 8.262L19.3513 9.18833L20.5763 10.0517L21.1363 10.4577L21.2296 8.451L21.3439 6.68933L21.5003 4.741L21.6449 3.29433L21.6753 3.01433C21.9086 0.993668 23.8756 -0.186998 25.6746 0.639002L27.0933 1.31567L27.8283 1.682L29.0999 2.33533L30.0519 2.844L31.0833 3.40867L32.7679 4.36533L33.9766 5.077C34.187 5.2023 34.397 5.3283 34.6066 5.455L35.9063 6.25766L37.2596 7.11633L37.9013 7.534L39.1216 8.346L40.2533 9.11833L41.2939 9.851L42.6799 10.8543L43.4826 11.4563L44.7939 12.4713L45.5126 13.0477C47.0759 14.3217 47.1133 16.7623 45.6106 17.9873L44.6026 18.7923L43.1863 19.8773L42.3299 20.5097L41.3803 21.1957L39.7843 22.3133L38.6106 23.1067L37.3506 23.9303L36.0089 24.7843L34.6719 25.608L34.0256 25.9953L32.7819 26.7257L31.6083 27.393L30.5116 27.9997L29.4943 28.5457L27.7279 29.4557L26.3536 30.1253L25.8286 30.3703C24.0156 31.208 21.9086 29.8943 21.6683 27.771L21.5633 26.7747L21.4443 25.4727L21.3229 23.886L21.2109 22.0263L21.1456 20.645L19.9976 21.4687C19.5939 21.7557 19.1669 22.052 18.7213 22.3553L17.3236 23.2957C16.5583 23.8016 15.7867 24.2979 15.0089 24.7843L13.6719 25.608L13.0256 25.9953L11.7819 26.7257L10.6083 27.393L9.5116 27.9997L8.49427 28.5457L6.72794 29.4557L5.3536 30.1253L4.8286 30.3703Z" fill="black"/>
<path fill-rule="evenodd" clip-rule="evenodd" d="M4.8286 30.3703C3.0156 31.208 0.908604 29.8943 0.66827 27.771L0.60527 27.1877L0.460601 25.664L0.308936 23.6923L0.206271 21.94L0.145602 20.6473L0.0989332 19.2637L0.0616024 17.7913L0.0429332 16.235L0.042933 14.6413L0.061602 13.1317L0.115267 11.0153L0.166601 9.70867L0.259935 7.919L0.4046 5.86567L0.549268 4.22067L0.675264 3.01434C0.908597 0.99367 2.8756 -0.186996 4.6746 0.639004L6.09327 1.31567L6.82827 1.682L8.09993 2.33533L9.05193 2.844L10.0833 3.40867L11.1893 4.03167L12.3629 4.713L13.6043 5.455L14.9063 6.25767L16.5163 7.282L17.9979 8.262L19.3513 9.18833L20.5763 10.0517L21.1363 10.4577L21.2296 8.451L21.3439 6.68933L21.5003 4.741L21.6449 3.29433L21.6753 3.01433C21.9086 0.993668 23.8756 -0.186998 25.6746 0.639002L27.0933 1.31567L27.8283 1.682L29.0999 2.33533L30.0519 2.844L31.0833 3.40867L32.7679 4.36533L33.9766 5.077C34.187 5.2023 34.397 5.3283 34.6066 5.455L35.9063 6.25766L37.2596 7.11633L37.9013 7.534L39.1216 8.346L40.2533 9.11833L41.2939 9.851L42.6799 10.8543L43.4826 11.4563L44.7939 12.4713L45.5126 13.0477C47.0759 14.3217 47.1133 16.7623 45.6106 17.9873L44.6026 18.7923L43.1863 19.8773L42.3299 20.5097L41.3803 21.1957L39.7843 22.3133L38.6106 23.1067L37.3506 23.9303L36.0089 24.7843L34.6719 25.608L34.0256 25.9953L32.7819 26.7257L31.6083 27.393L30.5116 27.9997L29.4943 28.5457L27.7279 29.4557L26.3536 30.1253L25.8286 30.3703C24.0156 31.208 21.9086 29.8943 21.6683 27.771L21.5633 26.7747L21.4443 25.4727L21.3229 23.886L21.2109 22.0263L21.1456 20.645L19.9976 21.4687C19.5939 21.7557 19.1669 22.052 18.7213 22.3553L17.3236 23.2957C16.5583 23.8016 15.7867 24.2979 15.0089 24.7843L13.6719 25.608L13.0256 25.9953L11.7819 26.7257L10.6083 27.393L9.5116 27.9997L8.49427 28.5457L6.72794 29.4557L5.3536 30.1253L4.8286 30.3703Z" fill="url(#paint0_linear_320_164)"/>
<defs>
<linearGradient id="paint0_linear_320_164" x1="46.7119" y1="30.6259" x2="38.7613" y2="-7.85166" gradientUnits="userSpaceOnUse">
<stop stop-color="#8F0AB1"/>
<stop offset="1" stop-color="#ED8C32"/>
</linearGradient>
</defs>
</svg>
