<svg width="48" height="49" viewBox="0 0 48 49" fill="none" xmlns="http://www.w3.org/2000/svg">
<path d="M34.512 37.8733L37.016 35.372C37.2471 35.1409 37.3627 34.8733 37.3627 34.5693C37.3627 34.2653 37.2471 33.996 37.016 33.7613L26.872 23.6013C27.1529 23.0787 27.3627 22.5133 27.5013 21.9053C27.6436 21.2973 27.7147 20.6307 27.7147 19.9053C27.7147 17.5551 26.8747 15.5462 25.1947 13.8787C23.5147 12.2076 21.4924 11.372 19.128 11.372C18.7369 11.372 18.3636 11.3942 18.008 11.4387C17.6507 11.4831 17.2951 11.5596 16.9413 11.668C16.6213 11.7782 16.4258 12.004 16.3547 12.3453C16.2836 12.6884 16.3689 12.9818 16.6107 13.2253L21.1333 17.7987L16.9893 21.94L12.3653 17.3667C12.1218 17.1231 11.8284 17.0378 11.4853 17.1107C11.144 17.1818 10.9129 17.3818 10.792 17.7107C10.6978 18.0769 10.6276 18.4431 10.5813 18.8093C10.5351 19.1738 10.512 19.5489 10.512 19.9347C10.512 22.2991 11.352 24.3213 13.032 26.0013C14.712 27.6813 16.7342 28.5213 19.0987 28.5213C19.7742 28.5213 20.4116 28.4422 21.0107 28.284C21.608 28.1276 22.2036 27.9258 22.7973 27.6787L32.9547 37.8227C33.1858 38.0538 33.4453 38.1782 33.7333 38.196C34.0213 38.2138 34.2809 38.1071 34.512 37.876M24.008 48.5C20.6907 48.5 17.5707 47.8707 14.648 46.612C11.7271 45.3516 9.18578 43.6413 7.024 41.4813C4.86222 39.3231 3.15111 36.7844 1.89067 33.8653C0.630222 30.9462 0 27.8271 0 24.508C0 21.1907 0.629333 18.0707 1.888 15.148C3.14844 12.2271 4.85867 9.68578 7.01867 7.524C9.17689 5.36222 11.7156 3.65111 14.6347 2.39067C17.5538 1.13022 20.6729 0.5 23.992 0.5C27.3093 0.5 30.4293 1.12933 33.352 2.388C36.2729 3.64844 38.8142 5.35867 40.976 7.51867C43.1378 9.67689 44.8489 12.2156 46.1093 15.1347C47.3698 18.0538 48 21.1729 48 24.492C48 27.8093 47.3707 30.9293 46.112 33.852C44.8516 36.7729 43.1413 39.3142 40.9813 41.476C38.8231 43.6378 36.2844 45.3489 33.3653 46.6093C30.4462 47.8698 27.3271 48.5 24.008 48.5Z" fill="url(#paint0_linear_319_147)"/>
<defs>
<linearGradient id="paint0_linear_319_147" x1="0" y1="0.5" x2="18.4188" y2="58.2846" gradientUnits="userSpaceOnUse">
<stop stop-color="#8F0AB1"/>
<stop offset="1" stop-color="#ED8C32"/>
</linearGradient>
</defs>
</svg>
