<svg width="48" height="48" viewBox="0 0 48 48" fill="none" xmlns="http://www.w3.org/2000/svg">
<path d="M47.7941 17.9961C47.7941 17.9961 47.7941 20.2636 46.8681 23.2448L36.549 12.8853C35.9894 12.3227 35.2301 12.0063 34.4382 12.0056H25.272C24.6041 12.006 23.9555 12.2313 23.4301 12.6454L19.8118 15.4887C19.5635 15.6841 19.2792 15.8284 18.9753 15.9133C18.6714 15.9982 18.3538 16.0222 18.0407 15.9837C17.7275 15.9453 17.425 15.8452 17.1504 15.6893C16.8759 15.5333 16.6346 15.3245 16.4405 15.0748C16.0482 14.5699 15.8713 13.9294 15.9486 13.2937C16.0259 12.658 16.351 12.079 16.8527 11.6836L29.199 2H31.8634C36.0885 2 40.1405 3.6853 43.1281 6.68515C46.1157 9.685 47.7941 13.7537 47.7941 17.9961ZM6.74067 24.6545C6.54145 24.4539 6.30478 24.2948 6.04423 24.1863C5.78368 24.0777 5.50436 24.0219 5.22227 24.0219C4.94018 24.0219 4.66086 24.0777 4.40031 24.1863C4.13976 24.2948 3.9031 24.4539 3.70388 24.6545L0.629253 27.7537C0.226264 28.16 0 28.71 0 29.2834C0 29.8567 0.226264 30.4067 0.629253 30.813C0.828474 31.0135 1.06514 31.1726 1.32569 31.2812C1.58624 31.3897 1.86556 31.4456 2.14765 31.4456C2.42974 31.4456 2.70906 31.3897 2.96961 31.2812C3.23016 31.1726 3.46682 31.0135 3.66604 30.813L6.74067 27.7137C7.14353 27.3078 7.36975 26.7582 7.36975 26.1851C7.36975 25.6121 7.14353 25.0624 6.74067 24.6565V24.6545ZM9.91884 28.8335C10.118 28.6324 10.3547 28.4728 10.6155 28.3639C10.8762 28.255 11.1558 28.199 11.4382 28.199C11.7206 28.199 12.0002 28.255 12.261 28.3639C12.5218 28.4728 12.7585 28.6324 12.9576 28.8335C13.36 29.2396 13.5859 29.7892 13.5859 30.3621C13.5859 30.935 13.36 31.4846 12.9576 31.8907L9.87901 34.984C9.67993 35.1847 9.44331 35.3441 9.18274 35.4528C8.92217 35.5615 8.64278 35.6174 8.36062 35.6174C8.07845 35.6174 7.79907 35.5615 7.5385 35.4528C7.27793 35.3441 7.04131 35.1847 6.84222 34.984C6.43984 34.5778 6.21396 34.0282 6.21396 33.4553C6.21396 32.8825 6.43984 32.3329 6.84222 31.9267L9.91685 28.8315L9.91884 28.8335ZM18.1172 34.0262C17.918 33.8257 17.6813 33.6666 17.4207 33.558C17.1602 33.4494 16.8809 33.3936 16.5988 33.3936C16.3167 33.3936 16.0374 33.4494 15.7768 33.558C15.5163 33.6666 15.2796 33.8257 15.0804 34.0262L12.0058 37.1214C11.6023 37.5274 11.3757 38.0775 11.3757 38.6511C11.3757 39.2246 11.6023 39.7747 12.0058 40.1807C12.2048 40.3815 12.4415 40.5408 12.702 40.6495C12.9626 40.7582 13.242 40.8142 13.5242 40.8142C13.8063 40.8142 14.0857 40.7582 14.3463 40.6495C14.6068 40.5408 14.8435 40.3815 15.0426 40.1807L18.1172 37.0835C18.5202 36.6772 18.7464 36.1272 18.7464 35.5538C18.7464 34.9805 18.5202 34.4324 18.1172 34.0262ZM23.2747 39.2169C23.0756 39.0159 22.8389 38.8563 22.5781 38.7474C22.3174 38.6385 22.0377 38.5825 21.7553 38.5825C21.4729 38.5825 21.1933 38.6385 20.9326 38.7474C20.6718 38.8563 20.4351 39.0159 20.236 39.2169L17.1613 42.3142C16.7589 42.7203 16.5331 43.2699 16.5331 43.8428C16.5331 44.4157 16.7589 44.9653 17.1613 45.3714C17.3604 45.5722 17.597 45.7315 17.8576 45.8402C18.1182 45.9489 18.3976 46.0049 18.6797 46.0049C18.9619 46.0049 19.2413 45.9489 19.5018 45.8402C19.7624 45.7315 19.999 45.5722 20.1981 45.3714L23.2727 42.2742C23.6756 41.8683 23.9018 41.3186 23.9018 40.7456C23.9018 40.1725 23.6756 39.6228 23.2727 39.2169H23.2747ZM21.9863 2.58586C20.9376 2.2741 19.8577 2.07963 18.7664 2.006C18.7067 2.00273 18.6469 2.0014 18.5871 2.002H17.924C13.6989 2.002 9.6469 3.6873 6.65931 6.68715C3.67173 9.687 1.99332 13.7557 1.99332 17.9981V22.1711C2.97806 21.3677 4.22472 20.96 5.49176 21.0268C6.7588 21.0937 7.95603 21.6304 8.85148 22.533C9.63408 23.3228 10.112 24.3046 10.2833 25.3283C11.0387 25.1546 11.8236 25.1547 12.579 25.3287C13.3344 25.5027 14.0409 25.846 14.6454 26.333C15.25 26.82 15.7369 27.438 16.0699 28.1408C16.4028 28.8436 16.5731 29.6129 16.5679 30.3911C17.2473 30.3879 17.9206 30.52 18.5487 30.7799C19.1769 31.0397 19.7475 31.4221 20.2276 31.9048C20.7076 32.3875 21.0875 32.9611 21.3453 33.5923C21.6031 34.2234 21.7337 34.8997 21.7295 35.5818C22.4073 35.5781 23.0791 35.7098 23.7058 35.9693C24.3325 36.2288 24.9014 36.611 25.3796 37.0935C26.3419 38.0637 26.8823 39.3772 26.8823 40.7466C26.8823 42.1159 26.3419 43.4295 25.3796 44.3997L24.9315 44.8516L27.4685 47.3789C27.8705 47.7769 28.4124 48 28.9769 48C29.5415 48 30.0833 47.7769 30.4854 47.3789C31.3098 46.5591 31.3118 45.2315 30.4893 44.4097C30.2068 44.1283 30.0471 43.7458 30.0454 43.3463C30.0438 42.9468 30.2002 42.5629 30.4804 42.2792C30.7606 41.9955 31.1415 41.8351 31.5394 41.8335C31.9373 41.8318 32.3196 41.9889 32.6022 42.2702C33.0042 42.6681 33.5461 42.8912 34.1106 42.8912C34.6751 42.8912 35.217 42.6681 35.619 42.2702C35.8148 42.076 35.9703 41.8448 36.0765 41.5898C36.1827 41.3349 36.2375 41.0613 36.2377 40.785C36.2379 40.5086 36.1835 40.235 36.0776 39.9799C35.9718 39.7248 35.8166 39.4934 35.621 39.2989C35.3563 39.014 35.2117 38.6372 35.2176 38.2475C35.2235 37.8579 35.3795 37.4857 35.6527 37.2089C35.926 36.9322 36.2954 36.7725 36.6834 36.7633C37.0713 36.754 37.4478 36.896 37.7338 37.1594C38.1363 37.5563 38.678 37.7783 39.2421 37.7775C39.8061 37.7768 40.3473 37.5533 40.7487 37.1554C41.593 36.3156 41.5891 34.952 40.7826 34.1462L40.7766 34.1422L36.2901 29.6353C36.0263 29.351 35.8827 28.975 35.8895 28.5865C35.8963 28.198 36.0531 27.8273 36.3267 27.5525C36.6003 27.2778 36.9695 27.1204 37.3564 27.1135C37.7433 27.1067 38.1178 27.2509 38.4009 27.5158L43.6501 32.7805C44.6995 33.8262 46.43 33.8362 47.34 32.9305C48.2461 32.0287 48.2381 30.3171 47.1987 29.2794L47.1947 29.2754L33.9802 16.0086H25.6165L22.2671 18.6399C21.6069 19.1587 20.8513 19.5418 20.0436 19.7673C19.2359 19.9928 18.3919 20.0563 17.5597 19.9541C16.7276 19.852 15.9236 19.5863 15.1937 19.1721C14.4639 18.7579 13.8225 18.2034 13.3061 17.5402C12.2628 16.1998 11.7921 14.4984 11.9974 12.8097C12.2028 11.121 13.0674 9.58331 14.4013 8.53441L21.9843 2.58786L21.9863 2.58586Z" fill="black"/>
<path d="M47.7941 17.9961C47.7941 17.9961 47.7941 20.2636 46.8681 23.2448L36.549 12.8853C35.9894 12.3227 35.2301 12.0063 34.4382 12.0056H25.272C24.6041 12.006 23.9555 12.2313 23.4301 12.6454L19.8118 15.4887C19.5635 15.6841 19.2792 15.8284 18.9753 15.9133C18.6714 15.9982 18.3538 16.0222 18.0407 15.9837C17.7275 15.9453 17.425 15.8452 17.1504 15.6893C16.8759 15.5333 16.6346 15.3245 16.4405 15.0748C16.0482 14.5699 15.8713 13.9294 15.9486 13.2937C16.0259 12.658 16.351 12.079 16.8527 11.6836L29.199 2H31.8634C36.0885 2 40.1405 3.6853 43.1281 6.68515C46.1157 9.685 47.7941 13.7537 47.7941 17.9961ZM6.74067 24.6545C6.54145 24.4539 6.30478 24.2948 6.04423 24.1863C5.78368 24.0777 5.50436 24.0219 5.22227 24.0219C4.94018 24.0219 4.66086 24.0777 4.40031 24.1863C4.13976 24.2948 3.9031 24.4539 3.70388 24.6545L0.629253 27.7537C0.226264 28.16 0 28.71 0 29.2834C0 29.8567 0.226264 30.4067 0.629253 30.813C0.828474 31.0135 1.06514 31.1726 1.32569 31.2812C1.58624 31.3897 1.86556 31.4456 2.14765 31.4456C2.42974 31.4456 2.70906 31.3897 2.96961 31.2812C3.23016 31.1726 3.46682 31.0135 3.66604 30.813L6.74067 27.7137C7.14353 27.3078 7.36975 26.7582 7.36975 26.1851C7.36975 25.6121 7.14353 25.0624 6.74067 24.6565V24.6545ZM9.91884 28.8335C10.118 28.6324 10.3547 28.4728 10.6155 28.3639C10.8762 28.255 11.1558 28.199 11.4382 28.199C11.7206 28.199 12.0002 28.255 12.261 28.3639C12.5218 28.4728 12.7585 28.6324 12.9576 28.8335C13.36 29.2396 13.5859 29.7892 13.5859 30.3621C13.5859 30.935 13.36 31.4846 12.9576 31.8907L9.87901 34.984C9.67993 35.1847 9.44331 35.3441 9.18274 35.4528C8.92217 35.5615 8.64278 35.6174 8.36062 35.6174C8.07845 35.6174 7.79907 35.5615 7.5385 35.4528C7.27793 35.3441 7.04131 35.1847 6.84222 34.984C6.43984 34.5778 6.21396 34.0282 6.21396 33.4553C6.21396 32.8825 6.43984 32.3329 6.84222 31.9267L9.91685 28.8315L9.91884 28.8335ZM18.1172 34.0262C17.918 33.8257 17.6813 33.6666 17.4207 33.558C17.1602 33.4494 16.8809 33.3936 16.5988 33.3936C16.3167 33.3936 16.0374 33.4494 15.7768 33.558C15.5163 33.6666 15.2796 33.8257 15.0804 34.0262L12.0058 37.1214C11.6023 37.5274 11.3757 38.0775 11.3757 38.6511C11.3757 39.2246 11.6023 39.7747 12.0058 40.1807C12.2048 40.3815 12.4415 40.5408 12.702 40.6495C12.9626 40.7582 13.242 40.8142 13.5242 40.8142C13.8063 40.8142 14.0857 40.7582 14.3463 40.6495C14.6068 40.5408 14.8435 40.3815 15.0426 40.1807L18.1172 37.0835C18.5202 36.6772 18.7464 36.1272 18.7464 35.5538C18.7464 34.9805 18.5202 34.4324 18.1172 34.0262ZM23.2747 39.2169C23.0756 39.0159 22.8389 38.8563 22.5781 38.7474C22.3174 38.6385 22.0377 38.5825 21.7553 38.5825C21.4729 38.5825 21.1933 38.6385 20.9326 38.7474C20.6718 38.8563 20.4351 39.0159 20.236 39.2169L17.1613 42.3142C16.7589 42.7203 16.5331 43.2699 16.5331 43.8428C16.5331 44.4157 16.7589 44.9653 17.1613 45.3714C17.3604 45.5722 17.597 45.7315 17.8576 45.8402C18.1182 45.9489 18.3976 46.0049 18.6797 46.0049C18.9619 46.0049 19.2413 45.9489 19.5018 45.8402C19.7624 45.7315 19.999 45.5722 20.1981 45.3714L23.2727 42.2742C23.6756 41.8683 23.9018 41.3186 23.9018 40.7456C23.9018 40.1725 23.6756 39.6228 23.2727 39.2169H23.2747ZM21.9863 2.58586C20.9376 2.2741 19.8577 2.07963 18.7664 2.006C18.7067 2.00273 18.6469 2.0014 18.5871 2.002H17.924C13.6989 2.002 9.6469 3.6873 6.65931 6.68715C3.67173 9.687 1.99332 13.7557 1.99332 17.9981V22.1711C2.97806 21.3677 4.22472 20.96 5.49176 21.0268C6.7588 21.0937 7.95603 21.6304 8.85148 22.533C9.63408 23.3228 10.112 24.3046 10.2833 25.3283C11.0387 25.1546 11.8236 25.1547 12.579 25.3287C13.3344 25.5027 14.0409 25.846 14.6454 26.333C15.25 26.82 15.7369 27.438 16.0699 28.1408C16.4028 28.8436 16.5731 29.6129 16.5679 30.3911C17.2473 30.3879 17.9206 30.52 18.5487 30.7799C19.1769 31.0397 19.7475 31.4221 20.2276 31.9048C20.7076 32.3875 21.0875 32.9611 21.3453 33.5923C21.6031 34.2234 21.7337 34.8997 21.7295 35.5818C22.4073 35.5781 23.0791 35.7098 23.7058 35.9693C24.3325 36.2288 24.9014 36.611 25.3796 37.0935C26.3419 38.0637 26.8823 39.3772 26.8823 40.7466C26.8823 42.1159 26.3419 43.4295 25.3796 44.3997L24.9315 44.8516L27.4685 47.3789C27.8705 47.7769 28.4124 48 28.9769 48C29.5415 48 30.0833 47.7769 30.4854 47.3789C31.3098 46.5591 31.3118 45.2315 30.4893 44.4097C30.2068 44.1283 30.0471 43.7458 30.0454 43.3463C30.0438 42.9468 30.2002 42.5629 30.4804 42.2792C30.7606 41.9955 31.1415 41.8351 31.5394 41.8335C31.9373 41.8318 32.3196 41.9889 32.6022 42.2702C33.0042 42.6681 33.5461 42.8912 34.1106 42.8912C34.6751 42.8912 35.217 42.6681 35.619 42.2702C35.8148 42.076 35.9703 41.8448 36.0765 41.5898C36.1827 41.3349 36.2375 41.0613 36.2377 40.785C36.2379 40.5086 36.1835 40.235 36.0776 39.9799C35.9718 39.7248 35.8166 39.4934 35.621 39.2989C35.3563 39.014 35.2117 38.6372 35.2176 38.2475C35.2235 37.8579 35.3795 37.4857 35.6527 37.2089C35.926 36.9322 36.2954 36.7725 36.6834 36.7633C37.0713 36.754 37.4478 36.896 37.7338 37.1594C38.1363 37.5563 38.678 37.7783 39.2421 37.7775C39.8061 37.7768 40.3473 37.5533 40.7487 37.1554C41.593 36.3156 41.5891 34.952 40.7826 34.1462L40.7766 34.1422L36.2901 29.6353C36.0263 29.351 35.8827 28.975 35.8895 28.5865C35.8963 28.198 36.0531 27.8273 36.3267 27.5525C36.6003 27.2778 36.9695 27.1204 37.3564 27.1135C37.7433 27.1067 38.1178 27.2509 38.4009 27.5158L43.6501 32.7805C44.6995 33.8262 46.43 33.8362 47.34 32.9305C48.2461 32.0287 48.2381 30.3171 47.1987 29.2794L47.1947 29.2754L33.9802 16.0086H25.6165L22.2671 18.6399C21.6069 19.1587 20.8513 19.5418 20.0436 19.7673C19.2359 19.9928 18.3919 20.0563 17.5597 19.9541C16.7276 19.852 15.9236 19.5863 15.1937 19.1721C14.4639 18.7579 13.8225 18.2034 13.3061 17.5402C12.2628 16.1998 11.7921 14.4984 11.9974 12.8097C12.2028 11.121 13.0674 9.58331 14.4013 8.53441L21.9843 2.58786L21.9863 2.58586Z" fill="url(#paint0_linear_19_43)"/>
<defs>
<linearGradient id="paint0_linear_19_43" x1="0" y1="2" x2="17.0442" y2="57.7968" gradientUnits="userSpaceOnUse">
<stop stop-color="#8F0AB1"/>
<stop offset="1" stop-color="#ED8C32"/>
</linearGradient>
</defs>
</svg>
