<svg width="48" height="48" viewBox="0 0 48 48" fill="none" xmlns="http://www.w3.org/2000/svg">
<g clip-path="url(#clip0_19_20)">
<path fill-rule="evenodd" clip-rule="evenodd" d="M25.8069 31.992C27.7942 30.8402 29.5311 29.3026 30.9154 27.4697C30.4674 26.778 30.1501 26.0098 29.9794 25.2034L29.9143 24.9017C29.7258 24.0411 29.2854 23.2561 28.6492 22.6467C28.0129 22.0374 27.2097 21.6312 26.3417 21.48C19.2377 20.2457 19.2377 10.0492 26.3417 8.81144C27.1802 8.66582 27.9591 8.2819 28.5853 7.70554C29.2115 7.12918 29.6586 6.38475 29.8732 5.56116C28.2026 3.74081 26.1584 2.30307 23.8805 1.34641C21.6025 0.389749 19.1447 -0.0632151 16.6754 0.0185451C14.206 0.100305 11.7836 0.714858 9.57388 1.8201C7.3642 2.92535 5.41953 4.49517 3.87309 6.42203C2.32666 8.34889 1.215 10.5873 0.614258 12.9838C0.0135208 15.3803 -0.0620948 17.8784 0.392591 20.3069C0.847277 22.7353 1.82152 25.0368 3.24858 27.0537C4.67564 29.0706 6.5218 30.7551 8.66058 31.992V36C8.66058 36.9093 9.02181 37.7814 9.66479 38.4244C10.3078 39.0674 11.1798 39.4286 12.0892 39.4286H22.3749C23.2842 39.4286 24.1563 39.0674 24.7992 38.4244C25.4422 37.7814 25.8034 36.9093 25.8034 36L25.8069 31.992ZM8.66401 45.4286C8.66401 44.7466 8.93493 44.0926 9.41717 43.6103C9.8994 43.1281 10.5535 42.8572 11.2354 42.8572H23.2354C23.9174 42.8572 24.5715 43.1281 25.0537 43.6103C25.536 44.0926 25.8069 44.7466 25.8069 45.4286C25.8069 46.1106 25.536 46.7646 25.0537 47.2469C24.5715 47.7291 23.9174 48 23.2354 48H11.2354C10.5535 48 9.8994 47.7291 9.41717 47.2469C8.93493 46.7646 8.66401 46.1106 8.66401 45.4286ZM33.624 5.88687C34.2514 3.02059 38.3314 3.00344 38.9829 5.86287L39.0137 6.00002L39.0754 6.26744C39.4435 7.83456 40.264 9.25894 41.435 10.3635C42.606 11.4681 44.0758 12.2041 45.6617 12.48C48.6514 13.0012 48.6514 17.2937 45.6617 17.8149C44.0668 18.0925 42.5894 18.8351 41.4152 19.9496C40.241 21.064 39.4222 22.5006 39.0617 24.0789L38.9829 24.4286C38.3314 27.2914 34.248 27.2743 33.6172 24.4046L33.552 24.1063C33.2064 22.5228 32.397 21.078 31.227 19.9563C30.057 18.8346 28.5795 18.0867 26.9829 17.808C23.9966 17.2903 23.9966 13.0046 26.9829 12.4834C28.574 12.2068 30.0472 11.4642 31.2159 10.3497C32.3847 9.23522 33.1965 7.799 33.5486 6.22287L33.6 6.00002L33.624 5.88687Z" fill="black"/>
<path fill-rule="evenodd" clip-rule="evenodd" d="M25.8069 31.992C27.7942 30.8402 29.5311 29.3026 30.9154 27.4697C30.4674 26.778 30.1501 26.0098 29.9794 25.2034L29.9143 24.9017C29.7258 24.0411 29.2854 23.2561 28.6492 22.6467C28.0129 22.0374 27.2097 21.6312 26.3417 21.48C19.2377 20.2457 19.2377 10.0492 26.3417 8.81144C27.1802 8.66582 27.9591 8.2819 28.5853 7.70554C29.2115 7.12918 29.6586 6.38475 29.8732 5.56116C28.2026 3.74081 26.1584 2.30307 23.8805 1.34641C21.6025 0.389749 19.1447 -0.0632151 16.6754 0.0185451C14.206 0.100305 11.7836 0.714858 9.57388 1.8201C7.3642 2.92535 5.41953 4.49517 3.87309 6.42203C2.32666 8.34889 1.215 10.5873 0.614258 12.9838C0.0135208 15.3803 -0.0620948 17.8784 0.392591 20.3069C0.847277 22.7353 1.82152 25.0368 3.24858 27.0537C4.67564 29.0706 6.5218 30.7551 8.66058 31.992V36C8.66058 36.9093 9.02181 37.7814 9.66479 38.4244C10.3078 39.0674 11.1798 39.4286 12.0892 39.4286H22.3749C23.2842 39.4286 24.1563 39.0674 24.7992 38.4244C25.4422 37.7814 25.8034 36.9093 25.8034 36L25.8069 31.992ZM8.66401 45.4286C8.66401 44.7466 8.93493 44.0926 9.41717 43.6103C9.8994 43.1281 10.5535 42.8572 11.2354 42.8572H23.2354C23.9174 42.8572 24.5715 43.1281 25.0537 43.6103C25.536 44.0926 25.8069 44.7466 25.8069 45.4286C25.8069 46.1106 25.536 46.7646 25.0537 47.2469C24.5715 47.7291 23.9174 48 23.2354 48H11.2354C10.5535 48 9.8994 47.7291 9.41717 47.2469C8.93493 46.7646 8.66401 46.1106 8.66401 45.4286ZM33.624 5.88687C34.2514 3.02059 38.3314 3.00344 38.9829 5.86287L39.0137 6.00002L39.0754 6.26744C39.4435 7.83456 40.264 9.25894 41.435 10.3635C42.606 11.4681 44.0758 12.2041 45.6617 12.48C48.6514 13.0012 48.6514 17.2937 45.6617 17.8149C44.0668 18.0925 42.5894 18.8351 41.4152 19.9496C40.241 21.064 39.4222 22.5006 39.0617 24.0789L38.9829 24.4286C38.3314 27.2914 34.248 27.2743 33.6172 24.4046L33.552 24.1063C33.2064 22.5228 32.397 21.078 31.227 19.9563C30.057 18.8346 28.5795 18.0867 26.9829 17.808C23.9966 17.2903 23.9966 13.0046 26.9829 12.4834C28.574 12.2068 30.0472 11.4642 31.2159 10.3497C32.3847 9.23522 33.1965 7.799 33.5486 6.22287L33.6 6.00002L33.624 5.88687Z" fill="url(#paint0_linear_19_20)"/>
</g>
<defs>
<linearGradient id="paint0_linear_19_20" x1="0.0997925" y1="0.00915527" x2="18.5737" y2="57.741" gradientUnits="userSpaceOnUse">
<stop stop-color="#8F0AB1"/>
<stop offset="1" stop-color="#ED8C32"/>
</linearGradient>
<clipPath id="clip0_19_20">
<rect width="48" height="48" fill="white"/>
</clipPath>
</defs>
</svg>
