<svg width="56" height="57" viewBox="0 0 56 57" fill="none" xmlns="http://www.w3.org/2000/svg">
<path fill-rule="evenodd" clip-rule="evenodd" d="M22.1655 16.173C20.0537 15.4266 17.7937 15.1977 15.5751 15.5057C13.3566 15.8136 11.2443 16.6494 9.41567 17.9428C7.58703 19.2362 6.0954 20.9494 5.06604 22.9387C4.03669 24.928 3.49964 27.1352 3.5 29.375C3.5 30.824 4.676 32 6.125 32H17.752C19.7543 34.4835 22.0165 36.7457 24.5 38.748V50.375C24.5 51.824 25.676 53 27.125 53C29.3648 53.0004 31.572 52.4633 33.5613 51.434C35.5506 50.4046 37.2638 48.913 38.5572 47.0843C39.8506 45.2557 40.6863 43.1434 40.9943 40.9249C41.3023 38.7063 41.0734 36.4463 40.327 34.3345C44.1688 30.8141 47.2353 26.5322 49.3311 21.7615C51.4269 16.9907 52.5061 11.8358 52.5 6.625C52.5 5.9288 52.2234 5.26113 51.7312 4.76884C51.2389 4.27656 50.5712 4 49.875 4C44.6642 3.99364 39.5092 5.07276 34.7384 7.16859C29.9676 9.26442 25.6857 12.331 22.1655 16.173ZM42 19.75C42 21.1424 41.4469 22.4777 40.4623 23.4623C39.4777 24.4469 38.1424 25 36.75 25C35.3576 25 34.0223 24.4469 33.0377 23.4623C32.0531 22.4777 31.5 21.1424 31.5 19.75C31.5 18.3576 32.0531 17.0223 33.0377 16.0377C34.0223 15.0531 35.3576 14.5 36.75 14.5C38.1424 14.5 39.4777 15.0531 40.4623 16.0377C41.4469 17.0223 42 18.3576 42 19.75Z" fill="black"/>
<path fill-rule="evenodd" clip-rule="evenodd" d="M22.1655 16.173C20.0537 15.4266 17.7937 15.1977 15.5751 15.5057C13.3566 15.8136 11.2443 16.6494 9.41567 17.9428C7.58703 19.2362 6.0954 20.9494 5.06604 22.9387C4.03669 24.928 3.49964 27.1352 3.5 29.375C3.5 30.824 4.676 32 6.125 32H17.752C19.7543 34.4835 22.0165 36.7457 24.5 38.748V50.375C24.5 51.824 25.676 53 27.125 53C29.3648 53.0004 31.572 52.4633 33.5613 51.434C35.5506 50.4046 37.2638 48.913 38.5572 47.0843C39.8506 45.2557 40.6863 43.1434 40.9943 40.9249C41.3023 38.7063 41.0734 36.4463 40.327 34.3345C44.1688 30.8141 47.2353 26.5322 49.3311 21.7615C51.4269 16.9907 52.5061 11.8358 52.5 6.625C52.5 5.9288 52.2234 5.26113 51.7312 4.76884C51.2389 4.27656 50.5712 4 49.875 4C44.6642 3.99364 39.5092 5.07276 34.7384 7.16859C29.9676 9.26442 25.6857 12.331 22.1655 16.173ZM42 19.75C42 21.1424 41.4469 22.4777 40.4623 23.4623C39.4777 24.4469 38.1424 25 36.75 25C35.3576 25 34.0223 24.4469 33.0377 23.4623C32.0531 22.4777 31.5 21.1424 31.5 19.75C31.5 18.3576 32.0531 17.0223 33.0377 16.0377C34.0223 15.0531 35.3576 14.5 36.75 14.5C38.1424 14.5 39.4777 15.0531 40.4623 16.0377C41.4469 17.0223 42 18.3576 42 19.75Z" fill="url(#paint0_linear_320_173)"/>
<path d="M13.6587 37.887C13.8308 37.5849 13.9412 37.2516 13.9835 36.9065C14.0258 36.5614 13.9991 36.2113 13.9049 35.8766C13.8108 35.5419 13.6511 35.2293 13.4351 34.9568C13.2192 34.6843 12.9512 34.4575 12.6468 34.2894C12.3425 34.1213 12.0077 34.0154 11.6621 33.9778C11.3164 33.9401 10.9668 33.9715 10.6334 34.0702C10.3 34.1688 9.98947 34.3327 9.71992 34.5523C9.45037 34.7719 9.22713 35.0429 9.06317 35.3495C7.09149 38.9352 6.50725 43.1208 7.42167 47.1095C7.5323 47.5902 7.77617 48.0301 8.12531 48.3786C8.47444 48.7271 8.91473 48.9702 9.39567 49.08C13.3836 49.9938 17.5683 49.4082 21.1522 47.435C21.467 47.2758 21.7466 47.0547 21.9741 46.785C22.2016 46.5154 22.3724 46.2026 22.4763 45.8654C22.5802 45.5282 22.6151 45.1735 22.5789 44.8226C22.5426 44.4716 22.4359 44.1316 22.2653 43.8228C22.0946 43.5139 21.8635 43.2427 21.5856 43.0252C21.3078 42.8078 20.989 42.6485 20.6482 42.5571C20.3074 42.4656 19.9517 42.4438 19.6023 42.4929C19.2529 42.542 18.917 42.6611 18.6147 42.843C16.6825 43.9099 14.4803 44.388 12.2797 44.2185C12.1114 42.0175 12.5908 39.8153 13.6587 37.8835" fill="black"/>
<path d="M13.6587 37.887C13.8308 37.5849 13.9412 37.2516 13.9835 36.9065C14.0258 36.5614 13.9991 36.2113 13.9049 35.8766C13.8108 35.5419 13.6511 35.2293 13.4351 34.9568C13.2192 34.6843 12.9512 34.4575 12.6468 34.2894C12.3425 34.1213 12.0077 34.0154 11.6621 33.9778C11.3164 33.9401 10.9668 33.9715 10.6334 34.0702C10.3 34.1688 9.98947 34.3327 9.71992 34.5523C9.45037 34.7719 9.22713 35.0429 9.06317 35.3495C7.09149 38.9352 6.50725 43.1208 7.42167 47.1095C7.5323 47.5902 7.77617 48.0301 8.12531 48.3786C8.47444 48.7271 8.91473 48.9702 9.39567 49.08C13.3836 49.9938 17.5683 49.4082 21.1522 47.435C21.467 47.2758 21.7466 47.0547 21.9741 46.785C22.2016 46.5154 22.3724 46.2026 22.4763 45.8654C22.5802 45.5282 22.6151 45.1735 22.5789 44.8226C22.5426 44.4716 22.4359 44.1316 22.2653 43.8228C22.0946 43.5139 21.8635 43.2427 21.5856 43.0252C21.3078 42.8078 20.989 42.6485 20.6482 42.5571C20.3074 42.4656 19.9517 42.4438 19.6023 42.4929C19.2529 42.542 18.917 42.6611 18.6147 42.843C16.6825 43.9099 14.4803 44.388 12.2797 44.2185C12.1114 42.0175 12.5908 39.8153 13.6587 37.8835" fill="url(#paint1_linear_320_173)"/>
<defs>
<linearGradient id="paint0_linear_320_173" x1="3.5" y1="3.99997" x2="22.3026" y2="62.9884" gradientUnits="userSpaceOnUse">
<stop stop-color="#8F0AB1"/>
<stop offset="1" stop-color="#ED8C32"/>
</linearGradient>
<linearGradient id="paint1_linear_320_173" x1="7" y1="33.9623" x2="12.9456" y2="52.6803" gradientUnits="userSpaceOnUse">
<stop stop-color="#8F0AB1"/>
<stop offset="1" stop-color="#ED8C32"/>
</linearGradient>
</defs>
</svg>
