<svg width="32" height="32" viewBox="0 0 32 32" fill="none" xmlns="http://www.w3.org/2000/svg">
<path d="M15 20H9C8.20435 20 7.44129 20.3161 6.87868 20.8787C6.31607 21.4413 6 22.2044 6 23V25H8V23C8 22.7348 8.10536 22.4804 8.29289 22.2929C8.48043 22.1054 8.73478 22 9 22H15C15.2652 22 15.5196 22.1054 15.7071 22.2929C15.8946 22.4804 16 22.7348 16 23V25H18V23C18 22.2044 17.6839 21.4413 17.1213 20.8787C16.5587 20.3161 15.7956 20 15 20ZM12 19C12.7911 19 13.5645 18.7654 14.2223 18.3259C14.8801 17.8864 15.3928 17.2616 15.6955 16.5307C15.9983 15.7998 16.0775 14.9956 15.9231 14.2196C15.7688 13.4437 15.3878 12.731 14.8284 12.1716C14.269 11.6122 13.5563 11.2312 12.7804 11.0769C12.0044 10.9225 11.2002 11.0017 10.4693 11.3045C9.73836 11.6072 9.11365 12.1199 8.67412 12.7777C8.2346 13.4355 8 14.2089 8 15C8 16.0609 8.42143 17.0783 9.17157 17.8284C9.92172 18.5786 10.9391 19 12 19ZM12 13C12.3956 13 12.7822 13.1173 13.1111 13.3371C13.44 13.5568 13.6964 13.8692 13.8478 14.2346C13.9991 14.6001 14.0387 15.0022 13.9616 15.3902C13.8844 15.7781 13.6939 16.1345 13.4142 16.4142C13.1345 16.6939 12.7781 16.8844 12.3902 16.9616C12.0022 17.0387 11.6001 16.9991 11.2346 16.8478C10.8692 16.6964 10.5568 16.44 10.3371 16.1111C10.1173 15.7822 10 15.3956 10 15C10 14.4696 10.2107 13.9609 10.5858 13.5858C10.9609 13.2107 11.4696 13 12 13Z" fill="url(#paint0_linear_34_31)"/>
<path d="M28 19V28H4V8H16V6H4C3.46957 6 2.96086 6.21071 2.58579 6.58579C2.21071 6.96086 2 7.46957 2 8V28C2 28.5304 2.21071 29.0391 2.58579 29.4142C2.96086 29.7893 3.46957 30 4 30H28C28.5304 30 29.0391 29.7893 29.4142 29.4142C29.7893 29.0391 30 28.5304 30 28V19H28Z" fill="url(#paint1_linear_34_31)"/>
<path d="M20 19H26V21H20V19ZM22 23H26V25H22V23ZM32 10V8H29.899C29.77 7.37402 29.5215 6.77881 29.167 6.247L30.657 4.757L29.243 3.343L27.753 4.833C27.2212 4.47851 26.626 4.22997 26 4.101V2H24V4.101C23.374 4.22997 22.7788 4.47851 22.247 4.833L20.757 3.343L19.343 4.757L20.833 6.247C20.4785 6.77881 20.23 7.37402 20.101 8H18V10H20.101C20.23 10.626 20.4785 11.2212 20.833 11.753L19.343 13.243L20.757 14.657L22.247 13.167C22.7788 13.5215 23.374 13.77 24 13.899V16H26V13.899C26.626 13.77 27.2212 13.5215 27.753 13.167L29.243 14.657L30.657 13.243L29.167 11.753C29.5215 11.2212 29.77 10.626 29.899 10H32ZM25 12C24.4067 12 23.8266 11.8241 23.3333 11.4944C22.8399 11.1648 22.4554 10.6962 22.2284 10.1481C22.0013 9.59987 21.9419 8.99667 22.0576 8.41473C22.1734 7.83279 22.4591 7.29824 22.8787 6.87868C23.2982 6.45912 23.8328 6.1734 24.4147 6.05764C24.9967 5.94189 25.5999 6.0013 26.1481 6.22836C26.6962 6.45542 27.1648 6.83994 27.4944 7.33329C27.8241 7.82664 28 8.40666 28 9C27.9992 9.79541 27.6829 10.558 27.1204 11.1204C26.558 11.6829 25.7954 11.9992 25 12Z" fill="url(#paint2_linear_34_31)"/>
<defs>
<linearGradient id="paint0_linear_34_31" x1="6" y1="11" x2="12.0655" y2="27.3106" gradientUnits="userSpaceOnUse">
<stop stop-color="#8F0AB1"/>
<stop offset="1" stop-color="#ED8C32"/>
</linearGradient>
<linearGradient id="paint1_linear_34_31" x1="2" y1="6" x2="10.0918" y2="35.617" gradientUnits="userSpaceOnUse">
<stop stop-color="#8F0AB1"/>
<stop offset="1" stop-color="#ED8C32"/>
</linearGradient>
<linearGradient id="paint2_linear_34_31" x1="18" y1="2" x2="30.5351" y2="25.9375" gradientUnits="userSpaceOnUse">
<stop stop-color="#8F0AB1"/>
<stop offset="1" stop-color="#ED8C32"/>
</linearGradient>
</defs>
</svg>
