<svg width="24" height="24" viewBox="0 0 24 24" fill="none" xmlns="http://www.w3.org/2000/svg">
<path d="M21 10H23V14H21V10ZM1 10H3V14H1V10ZM18 9C18 8.46957 17.7893 7.96086 17.4142 7.58579C17.0391 7.21071 16.5304 7 16 7H8C7.46957 7 6.96086 7.21071 6.58579 7.58579C6.21071 7.96086 6 8.46957 6 9C5.46957 9 4.96086 9.21071 4.58579 9.58579C4.21071 9.96086 4 10.4696 4 11V13C4 13.5304 4.21071 14.0391 4.58579 14.4142C4.96086 14.7893 5.46957 15 6 15C6 15.5304 6.21071 16.0391 6.58579 16.4142C6.96086 16.7893 7.46957 17 8 17H9.028L10.63 14.224C10.7689 13.9835 10.9686 13.7838 11.209 13.645C11.4495 13.5062 11.7223 13.4331 12 13.4331C12.2777 13.4331 12.5505 13.5062 12.791 13.645C13.0314 13.7838 13.2311 13.9835 13.37 14.224L14.972 17H16C16.5304 17 17.0391 16.7893 17.4142 16.4142C17.7893 16.0391 18 15.5304 18 15C18.5304 15 19.0391 14.7893 19.4142 14.4142C19.7893 14.0391 20 13.5304 20 13V11C20 10.4696 19.7893 9.96086 19.4142 9.58579C19.0391 9.21071 18.5304 9 18 9ZM17 12H7V10H17V12Z" fill="url(#paint0_linear_34_24)"/>
<defs>
<linearGradient id="paint0_linear_34_24" x1="1" y1="7" x2="2.88192" y2="19.9889" gradientUnits="userSpaceOnUse">
<stop stop-color="#8F0AB1"/>
<stop offset="1" stop-color="#ED8C32"/>
</linearGradient>
</defs>
</svg>
