<svg width="16" height="16" viewBox="0 0 16 16" fill="none" xmlns="http://www.w3.org/2000/svg">
<path d="M8 2.00195C7.73762 2.00195 7.47781 2.05363 7.2354 2.15404C6.99299 2.25445 6.77273 2.40162 6.5872 2.58715C6.40167 2.77269 6.2545 2.99294 6.15409 3.23535C6.05368 3.47776 6.002 3.73757 6.002 3.99995C6.002 4.26233 6.05368 4.52215 6.15409 4.76455C6.2545 5.00696 6.40167 5.22722 6.5872 5.41275C6.77273 5.59828 6.99299 5.74546 7.2354 5.84586C7.47781 5.94627 7.73762 5.99795 8 5.99795C8.5299 5.99795 9.0381 5.78745 9.4128 5.41275C9.7875 5.03805 9.998 4.52986 9.998 3.99995C9.998 3.47005 9.7875 2.96185 9.4128 2.58715C9.0381 2.21246 8.5299 2.00195 8 2.00195ZM12.5 2.99995C12.1022 2.99995 11.7206 3.15799 11.4393 3.43929C11.158 3.7206 11 4.10213 11 4.49995C11 4.89778 11.158 5.27931 11.4393 5.56061C11.7206 5.84192 12.1022 5.99995 12.5 5.99995C12.8978 5.99995 13.2794 5.84192 13.5607 5.56061C13.842 5.27931 14 4.89778 14 4.49995C14 4.10213 13.842 3.7206 13.5607 3.43929C13.2794 3.15799 12.8978 2.99995 12.5 2.99995ZM3.5 2.99995C3.10218 2.99995 2.72064 3.15799 2.43934 3.43929C2.15804 3.7206 2 4.10213 2 4.49995C2 4.89778 2.15804 5.27931 2.43934 5.56061C2.72064 5.84192 3.10218 5.99995 3.5 5.99995C3.89782 5.99995 4.27936 5.84192 4.56066 5.56061C4.84197 5.27931 5 4.89778 5 4.49995C5 4.10213 4.84197 3.7206 4.56066 3.43929C4.27936 3.15799 3.89782 2.99995 3.5 2.99995ZM5 7.99295C5.00185 7.72895 5.10802 7.47639 5.29536 7.29037C5.48269 7.10434 5.73599 6.99995 6 6.99995H10C10.2652 6.99995 10.5196 7.10531 10.7071 7.29285C10.8946 7.48038 11 7.73474 11 7.99995V11C10.9999 11.3147 10.9507 11.6274 10.854 11.927C10.6326 12.6057 10.1764 13.1832 9.56751 13.5559C8.95859 13.9285 8.23675 14.0719 7.53163 13.9602C6.8265 13.8486 6.18428 13.4892 5.72028 12.9466C5.25628 12.4041 5.0009 11.7139 5 11V7.99995V7.99295ZM4 7.99995C4 7.63495 4.097 7.29395 4.268 6.99995H2C1.73478 6.99995 1.48043 7.10531 1.29289 7.29285C1.10536 7.48038 1 7.73474 1 7.99995V10.5C0.999864 10.9093 1.10023 11.3123 1.29227 11.6738C1.48432 12.0352 1.76218 12.344 2.10144 12.573C2.44071 12.802 2.831 12.9441 3.23806 12.987C3.64511 13.0299 4.05646 12.9722 4.436 12.819C4.14818 12.2555 3.99872 11.6316 4 10.999V7.99995ZM12 7.99995V11C12 11.655 11.843 12.273 11.564 12.819C11.9435 12.9722 12.3549 13.0299 12.7619 12.987C13.169 12.9441 13.5593 12.802 13.8986 12.573C14.2378 12.344 14.5157 12.0352 14.7077 11.6738C14.8998 11.3123 15.0001 10.9093 15 10.5V7.99995C15 7.73474 14.8946 7.48038 14.7071 7.29285C14.5196 7.10531 14.2652 6.99995 14 6.99995H11.732C11.902 7.29395 12 7.63495 12 7.99995Z" fill="url(#paint0_linear_34_26)"/>
<defs>
<linearGradient id="paint0_linear_34_26" x1="1" y1="2.00195" x2="5.04289" y2="16.8054" gradientUnits="userSpaceOnUse">
<stop stop-color="#8F0AB1"/>
<stop offset="1" stop-color="#ED8C32"/>
</linearGradient>
</defs>
</svg>
