<svg width="54" height="54" viewBox="0 0 54 54" fill="none" xmlns="http://www.w3.org/2000/svg">
<path d="M27.0033 19C24.8816 19 22.8468 19.8429 21.3465 21.3432C19.8462 22.8435 19.0033 24.8783 19.0033 27C19.0033 29.1218 19.8462 31.1566 21.3465 32.6569C22.8468 34.1572 24.8816 35 27.0033 35C29.125 35 31.1599 34.1572 32.6602 32.6569C34.1605 31.1566 35.0033 29.1218 35.0033 27C35.0033 24.8783 34.1605 22.8435 32.6602 21.3432C31.1599 19.8429 29.125 19 27.0033 19ZM27.0033 13.6667C30.5395 13.6667 33.9309 15.0715 36.4314 17.5719C38.9319 20.0724 40.3366 23.4638 40.3366 27C40.3366 30.5363 38.9319 33.9276 36.4314 36.4281C33.9309 38.9286 30.5395 40.3334 27.0033 40.3334C23.4671 40.3334 20.0757 38.9286 17.5752 36.4281C15.0747 33.9276 13.67 30.5363 13.67 27C13.67 23.4638 15.0747 20.0724 17.5752 17.5719C20.0757 15.0715 23.4671 13.6667 27.0033 13.6667ZM44.3366 13C44.3366 13.8841 43.9855 14.7319 43.3603 15.3571C42.7352 15.9822 41.8874 16.3334 41.0033 16.3334C40.1193 16.3334 39.2714 15.9822 38.6463 15.3571C38.0212 14.7319 37.67 13.8841 37.67 13C37.67 12.116 38.0212 11.2681 38.6463 10.643C39.2714 10.0179 40.1193 9.66671 41.0033 9.66671C41.8874 9.66671 42.7352 10.0179 43.3603 10.643C43.9855 11.2681 44.3366 12.116 44.3366 13ZM27.0033 5.66671C20.406 5.66671 19.3286 5.68537 16.2593 5.82137C14.1687 5.92004 12.766 6.20004 11.4647 6.70671C10.3756 7.10654 9.39108 7.7474 8.58465 8.58137C7.75 9.38777 7.10826 10.3723 6.70732 11.4614C6.20065 12.768 5.92065 14.168 5.82465 16.256C5.68598 19.2 5.66732 20.2294 5.66732 27C5.66732 33.6 5.68598 34.6747 5.82198 37.744C5.92065 39.832 6.20065 41.2374 6.70465 42.536C7.15798 43.696 7.69132 44.5307 8.57665 45.416C9.47532 46.312 10.31 46.848 11.4567 47.2907C12.774 47.8 14.1767 48.0827 16.2567 48.1787C19.2007 48.3174 20.23 48.3334 27.0006 48.3334C33.6006 48.3334 34.6753 48.3147 37.7446 48.1787C39.83 48.08 41.2327 47.8 42.5366 47.296C43.6247 46.8942 44.6088 46.2536 45.4166 45.4214C46.3153 44.5254 46.8513 43.6907 47.294 42.5414C47.8007 41.2294 48.0833 39.8267 48.1793 37.7414C48.318 34.8 48.334 33.768 48.334 27C48.334 20.4027 48.3153 19.3254 48.1793 16.256C48.0806 14.1707 47.798 12.7627 47.294 11.4614C46.892 10.3734 46.2514 9.38933 45.4193 8.58137C44.6133 7.7463 43.6287 7.10449 42.5393 6.70404C41.2326 6.19737 39.83 5.91737 37.7446 5.82137C34.8033 5.68271 33.774 5.66671 27.0006 5.66671M27.0006 0.333374C34.246 0.333374 35.15 0.360041 37.9953 0.493374C40.8326 0.626707 42.7686 1.07204 44.4673 1.73337C46.2273 2.41071 47.71 3.32804 49.1926 4.80804C50.5486 6.1411 51.5979 7.75361 52.2673 9.53337C52.926 11.232 53.374 13.168 53.5073 16.008C53.6326 18.8507 53.6673 19.7547 53.6673 27C53.6673 34.2454 53.6406 35.1494 53.5073 37.992C53.374 40.832 52.926 42.7654 52.2673 44.4667C51.5997 46.2474 50.5502 47.8603 49.1926 49.192C47.8592 50.5476 46.2468 51.5967 44.4673 52.2667C42.7686 52.9254 40.8326 53.3734 37.9953 53.5067C35.15 53.632 34.246 53.6667 27.0006 53.6667C19.7553 53.6667 18.8513 53.64 16.006 53.5067C13.1686 53.3734 11.2353 52.9254 9.53398 52.2667C7.75352 51.5986 6.14072 50.5492 4.80865 49.192C3.45247 47.8591 2.40321 46.2466 1.73398 44.4667C1.07265 42.768 0.627318 40.832 0.493984 37.992C0.365984 35.1494 0.333984 34.2454 0.333984 27C0.333984 19.7547 0.360651 18.8507 0.493984 16.008C0.627318 13.168 1.07265 11.2347 1.73398 9.53337C2.40128 7.75252 3.45079 6.13956 4.80865 4.80804C6.14111 3.45132 7.75379 2.40199 9.53398 1.73337C11.2326 1.07204 13.166 0.626707 16.006 0.493374C18.854 0.368041 19.758 0.333374 27.0033 0.333374" fill="#A9B2BD"/>
</svg>
