<svg width="48" height="48" viewBox="0 0 48 48" fill="none" xmlns="http://www.w3.org/2000/svg">
<path d="M40 0C42.1217 0 44.1566 0.842855 45.6569 2.34315C47.1571 3.84344 48 5.87827 48 8V40C48 42.1217 47.1571 44.1566 45.6569 45.6569C44.1566 47.1571 42.1217 48 40 48H8C5.87827 48 3.84344 47.1571 2.34315 45.6569C0.842855 44.1566 0 42.1217 0 40V8C0 5.87827 0.842855 3.84344 2.34315 2.34315C3.84344 0.842855 5.87827 0 8 0H40ZM40 5.33333H8C7.29276 5.33333 6.61448 5.61429 6.11438 6.11438C5.61429 6.61448 5.33333 7.29276 5.33333 8V40C5.33333 40.7072 5.61429 41.3855 6.11438 41.8856C6.61448 42.3857 7.29276 42.6667 8 42.6667H40C40.7072 42.6667 41.3855 42.3857 41.8856 41.8856C42.3857 41.3855 42.6667 40.7072 42.6667 40V8C42.6667 7.29276 42.3857 6.61448 41.8856 6.11438C41.3855 5.61429 40.7072 5.33333 40 5.33333ZM13.3333 18.6667C13.9865 18.6668 14.6169 18.9065 15.105 19.3406C15.5931 19.7746 15.9049 20.3727 15.9813 21.0213L16 21.3333V34.6667C15.9992 35.3463 15.739 36.0001 15.2724 36.4943C14.8058 36.9885 14.1681 37.286 13.4896 37.3258C12.8111 37.3656 12.143 37.1449 11.6218 36.7086C11.1006 36.2724 10.7656 35.6536 10.6853 34.9787L10.6667 34.6667V21.3333C10.6667 20.6261 10.9476 19.9478 11.4477 19.4477C11.9478 18.9476 12.6261 18.6667 13.3333 18.6667ZM21.3333 16C21.9579 15.9999 22.5626 16.219 23.0421 16.6191C23.5217 17.0192 23.8455 17.5749 23.9573 18.1893C24.4939 17.8782 25.0487 17.5994 25.6187 17.3547C27.3973 16.5947 30.0613 16.176 32.4667 16.9307C33.728 17.3307 34.9947 18.0773 35.9333 19.3493C36.7733 20.4827 37.2267 21.8613 37.3173 23.4107L37.3333 24V34.6667C37.3326 35.3463 37.0723 36.0001 36.6057 36.4943C36.1392 36.9885 35.5015 37.286 34.8229 37.3258C34.1444 37.3656 33.4763 37.1449 32.9551 36.7086C32.4339 36.2724 32.0989 35.6536 32.0187 34.9787L32 34.6667V24C32 23.12 31.7867 22.7093 31.648 22.52C31.449 22.2724 31.1747 22.0964 30.8667 22.0187C29.9387 21.7253 28.6027 21.88 27.7147 22.2587C26.3813 22.8293 25.16 23.7253 24.328 24.5547L24 24.9067V34.6667C23.9992 35.3463 23.739 36.0001 23.2724 36.4943C22.8058 36.9885 22.1681 37.286 21.4896 37.3258C20.8111 37.3656 20.143 37.1449 19.6218 36.7086C19.1006 36.2724 18.7656 35.6536 18.6853 34.9787L18.6667 34.6667V18.6667C18.6667 17.9594 18.9476 17.2811 19.4477 16.781C19.9478 16.281 20.6261 16 21.3333 16ZM13.3333 10.6667C14.0406 10.6667 14.7189 10.9476 15.219 11.4477C15.719 11.9478 16 12.6261 16 13.3333C16 14.0406 15.719 14.7189 15.219 15.219C14.7189 15.719 14.0406 16 13.3333 16C12.6261 16 11.9478 15.719 11.4477 15.219C10.9476 14.7189 10.6667 14.0406 10.6667 13.3333C10.6667 12.6261 10.9476 11.9478 11.4477 11.4477C11.9478 10.9476 12.6261 10.6667 13.3333 10.6667Z" fill="#A9B2BD"/>
</svg>
