<svg width="16" height="22" viewBox="0 0 16 22" fill="none" xmlns="http://www.w3.org/2000/svg">
<path d="M7.9599 10.66C7.24382 10.66 6.55706 10.3756 6.05071 9.86921C5.54437 9.36286 5.2599 8.67611 5.2599 7.96002C5.2599 7.24394 5.54437 6.55718 6.05071 6.05084C6.55706 5.54449 7.24382 5.26002 7.9599 5.26002C8.67599 5.26002 9.36274 5.54449 9.86909 6.05084C10.3754 6.55718 10.6599 7.24394 10.6599 7.96002C10.6599 8.31459 10.5901 8.66569 10.4544 8.99327C10.3187 9.32085 10.1198 9.61849 9.86909 9.86921C9.61837 10.1199 9.32073 10.3188 8.99315 10.4545C8.66557 10.5902 8.31447 10.66 7.9599 10.66ZM7.9599 0.400024C5.95487 0.400024 4.03195 1.19652 2.61417 2.6143C1.1964 4.03207 0.399902 5.95499 0.399902 7.96002C0.399902 13.63 7.9599 22 7.9599 22C7.9599 22 15.5199 13.63 15.5199 7.96002C15.5199 5.95499 14.7234 4.03207 13.3056 2.6143C11.8879 1.19652 9.96494 0.400024 7.9599 0.400024Z" fill="#A9B2BD"/>
</svg>
