<svg width="482" height="185" viewBox="0 0 482 185" fill="none" xmlns="http://www.w3.org/2000/svg">
<path d="M170.819 96.7722C165.267 96.7722 160.683 95.1581 157.068 91.93C153.452 88.702 151.645 83.7307 151.645 77.0163V56.0982C151.645 54.807 150.999 54.1614 149.708 54.1614H146.802C144.478 54.1614 142.735 53.4512 141.573 52.0309C140.411 50.6105 139.83 48.8028 139.83 46.6077C139.83 44.2834 140.411 42.4111 141.573 40.9908C142.735 39.4413 144.478 38.6666 146.802 38.6666H149.708C150.999 38.6666 151.645 38.0209 151.645 36.7297V22.397C151.645 20.2019 152.419 18.3296 153.969 16.7801C155.518 15.2306 157.52 14.4559 159.973 14.4559C162.426 14.4559 164.428 15.2306 165.977 16.7801C167.656 18.2005 168.495 20.0728 168.495 22.397V36.7297C168.495 38.0209 169.141 38.6666 170.432 38.6666H177.598C179.794 38.6666 181.601 39.4413 183.022 40.9908C184.571 42.5403 185.346 44.4126 185.346 46.6077C185.346 48.8028 184.571 50.6105 183.022 52.0309C181.601 53.4512 179.729 54.1614 177.405 54.1614H170.432C169.141 54.1614 168.495 54.807 168.495 56.0982V74.3047C168.495 76.6289 168.883 78.2429 169.657 79.1468C170.561 80.0507 171.659 80.5026 172.95 80.5026C173.466 80.5026 174.499 80.3735 176.049 80.1152C177.598 79.7279 178.567 79.5342 178.954 79.5342C181.02 79.5342 182.763 80.3089 184.184 81.8584C185.604 83.4079 186.314 85.2802 186.314 87.4753C186.314 89.1539 185.798 90.7034 184.765 92.1237C183.861 93.5441 182.376 94.5771 180.31 95.2227C178.631 95.7392 177.017 96.1266 175.468 96.3848C173.918 96.6431 172.369 96.7722 170.819 96.7722ZM223.285 96.7722C214.505 96.7722 207.08 94.1897 201.012 89.0248C195.072 83.7307 192.102 76.4998 192.102 67.332C192.102 57.7769 195.007 50.2877 200.818 44.8645C206.758 39.4413 214.182 36.7297 223.092 36.7297C229.419 36.7297 234.648 37.8918 238.78 40.216C242.912 42.5403 246.011 45.5101 248.077 49.1256C250.143 52.741 251.176 56.5502 251.176 60.553C251.176 67.2674 248.206 70.6247 242.267 70.6247H210.115C209.082 70.6247 208.565 71.2703 208.565 72.5615C208.565 75.5313 210.179 77.9201 213.408 79.7279C216.765 81.4065 220.509 82.2458 224.641 82.2458C227.224 82.2458 229.806 81.923 232.389 81.2773C234.971 80.5026 237.231 79.4051 239.168 77.9847C240.459 77.0808 241.815 76.6289 243.235 76.6289C245.172 76.6289 246.786 77.3391 248.077 78.7594C249.498 80.1798 250.208 81.8584 250.208 83.7953C250.208 86.1195 248.981 88.3146 246.528 90.3806C244.203 92.3174 240.782 93.8669 236.262 95.029C231.872 96.1911 227.547 96.7722 223.285 96.7722ZM233.357 59.3909C233.615 59.3909 233.938 59.3263 234.326 59.1972C234.842 59.0681 235.1 58.6162 235.1 57.8414C235.1 55.9046 233.874 54.1614 231.42 52.6119C229.096 50.9333 226.062 50.094 222.317 50.094C218.314 50.094 215.022 50.9979 212.439 52.8056C209.986 54.4842 208.759 56.2274 208.759 58.0351C208.759 58.939 209.276 59.3909 210.309 59.3909H233.357ZM291.558 96.7722C286.135 96.7722 281.034 95.5455 276.257 93.0922C271.608 90.6388 267.864 87.0879 265.023 82.4395C262.182 77.791 260.762 72.2387 260.762 65.7825C260.891 56.873 263.796 49.8358 269.478 44.6708C275.159 39.3767 282.519 36.7297 291.558 36.7297C295.044 36.7297 298.466 37.1171 301.823 37.8918C305.181 38.6666 308.086 40.0869 310.539 42.1529C312.476 43.7024 313.445 45.7038 313.445 48.1571C313.445 50.2231 312.67 52.0954 311.12 53.774C309.7 55.4526 307.892 56.2919 305.697 56.2919C304.277 56.2919 302.985 55.9046 301.823 55.1298C299.887 54.0968 298.143 53.3867 296.594 52.9993C295.174 52.6119 293.559 52.4182 291.752 52.4182C287.491 52.4182 284.004 53.6449 281.293 56.0982C278.581 58.5516 277.225 61.8442 277.225 65.9762C277.225 70.7538 278.71 74.4984 281.68 77.21C284.65 79.7924 288.136 81.0837 292.139 81.0837C296.658 81.0837 300.92 79.4051 304.922 76.0478C306.472 74.8857 307.957 74.3047 309.377 74.3047C311.443 74.3047 313.186 75.144 314.607 76.8226C316.156 78.5012 316.931 80.438 316.931 82.6331C316.931 83.537 316.737 84.57 316.35 85.7321C315.962 86.7651 315.252 87.7981 314.219 88.8311C310.733 91.6718 306.988 93.6732 302.985 94.8353C299.112 96.1266 295.303 96.7722 291.558 96.7722ZM336.337 96.7722C333.884 96.7722 331.818 96.062 330.139 94.6416C328.461 93.2213 327.621 91.4136 327.621 89.2185V17.1675C327.621 15.1015 328.396 13.3583 329.946 11.938C331.624 10.3885 333.755 9.61375 336.337 9.61375C338.791 9.61375 340.792 10.3885 342.341 11.938C343.891 13.3583 344.666 15.1661 344.666 17.3612V43.1213C346.344 41.1845 348.604 39.635 351.445 38.4729C354.285 37.3108 357.32 36.7297 360.548 36.7297C367.779 36.7297 373.589 38.8602 377.98 43.1213C382.499 47.3824 384.759 54.1614 384.759 63.4583V89.6058C384.759 91.6718 383.919 93.415 382.241 94.8353C380.691 96.1266 378.69 96.7722 376.236 96.7722C373.783 96.7722 371.717 96.062 370.038 94.6416C368.489 93.2213 367.714 91.4136 367.714 89.2185V65.5888C367.714 60.8113 366.617 57.3895 364.422 55.3235C362.356 53.2575 359.773 52.2245 356.674 52.2245C353.446 52.2245 350.799 53.3221 348.733 55.5172C346.667 57.5832 345.311 59.9074 344.666 62.4899V89.0248C344.666 91.2199 343.826 93.0922 342.148 94.6416C340.598 96.062 338.661 96.7722 336.337 96.7722Z" fill="url(#paint0_linear_89_32)"/>
<path d="M170.819 96.7722C165.267 96.7722 160.683 95.1581 157.068 91.93C153.452 88.702 151.645 83.7307 151.645 77.0163V56.0982C151.645 54.807 150.999 54.1614 149.708 54.1614H146.802C144.478 54.1614 142.735 53.4512 141.573 52.0309C140.411 50.6105 139.83 48.8028 139.83 46.6077C139.83 44.2834 140.411 42.4111 141.573 40.9908C142.735 39.4413 144.478 38.6666 146.802 38.6666H149.708C150.999 38.6666 151.645 38.0209 151.645 36.7297V22.397C151.645 20.2019 152.419 18.3296 153.969 16.7801C155.518 15.2306 157.52 14.4559 159.973 14.4559C162.426 14.4559 164.428 15.2306 165.977 16.7801C167.656 18.2005 168.495 20.0728 168.495 22.397V36.7297C168.495 38.0209 169.141 38.6666 170.432 38.6666H177.598C179.794 38.6666 181.601 39.4413 183.022 40.9908C184.571 42.5403 185.346 44.4126 185.346 46.6077C185.346 48.8028 184.571 50.6105 183.022 52.0309C181.601 53.4512 179.729 54.1614 177.405 54.1614H170.432C169.141 54.1614 168.495 54.807 168.495 56.0982V74.3047C168.495 76.6289 168.883 78.2429 169.657 79.1468C170.561 80.0507 171.659 80.5026 172.95 80.5026C173.466 80.5026 174.499 80.3735 176.049 80.1152C177.598 79.7279 178.567 79.5342 178.954 79.5342C181.02 79.5342 182.763 80.3089 184.184 81.8584C185.604 83.4079 186.314 85.2802 186.314 87.4753C186.314 89.1539 185.798 90.7034 184.765 92.1237C183.861 93.5441 182.376 94.5771 180.31 95.2227C178.631 95.7392 177.017 96.1266 175.468 96.3848C173.918 96.6431 172.369 96.7722 170.819 96.7722ZM223.285 96.7722C214.505 96.7722 207.08 94.1897 201.012 89.0248C195.072 83.7307 192.102 76.4998 192.102 67.332C192.102 57.7769 195.007 50.2877 200.818 44.8645C206.758 39.4413 214.182 36.7297 223.092 36.7297C229.419 36.7297 234.648 37.8918 238.78 40.216C242.912 42.5403 246.011 45.5101 248.077 49.1256C250.143 52.741 251.176 56.5502 251.176 60.553C251.176 67.2674 248.206 70.6247 242.267 70.6247H210.115C209.082 70.6247 208.565 71.2703 208.565 72.5615C208.565 75.5313 210.179 77.9201 213.408 79.7279C216.765 81.4065 220.509 82.2458 224.641 82.2458C227.224 82.2458 229.806 81.923 232.389 81.2773C234.971 80.5026 237.231 79.4051 239.168 77.9847C240.459 77.0808 241.815 76.6289 243.235 76.6289C245.172 76.6289 246.786 77.3391 248.077 78.7594C249.498 80.1798 250.208 81.8584 250.208 83.7953C250.208 86.1195 248.981 88.3146 246.528 90.3806C244.203 92.3174 240.782 93.8669 236.262 95.029C231.872 96.1911 227.547 96.7722 223.285 96.7722ZM233.357 59.3909C233.615 59.3909 233.938 59.3263 234.326 59.1972C234.842 59.0681 235.1 58.6162 235.1 57.8414C235.1 55.9046 233.874 54.1614 231.42 52.6119C229.096 50.9333 226.062 50.094 222.317 50.094C218.314 50.094 215.022 50.9979 212.439 52.8056C209.986 54.4842 208.759 56.2274 208.759 58.0351C208.759 58.939 209.276 59.3909 210.309 59.3909H233.357ZM291.558 96.7722C286.135 96.7722 281.034 95.5455 276.257 93.0922C271.608 90.6388 267.864 87.0879 265.023 82.4395C262.182 77.791 260.762 72.2387 260.762 65.7825C260.891 56.873 263.796 49.8358 269.478 44.6708C275.159 39.3767 282.519 36.7297 291.558 36.7297C295.044 36.7297 298.466 37.1171 301.823 37.8918C305.181 38.6666 308.086 40.0869 310.539 42.1529C312.476 43.7024 313.445 45.7038 313.445 48.1571C313.445 50.2231 312.67 52.0954 311.12 53.774C309.7 55.4526 307.892 56.2919 305.697 56.2919C304.277 56.2919 302.985 55.9046 301.823 55.1298C299.887 54.0968 298.143 53.3867 296.594 52.9993C295.174 52.6119 293.559 52.4182 291.752 52.4182C287.491 52.4182 284.004 53.6449 281.293 56.0982C278.581 58.5516 277.225 61.8442 277.225 65.9762C277.225 70.7538 278.71 74.4984 281.68 77.21C284.65 79.7924 288.136 81.0837 292.139 81.0837C296.658 81.0837 300.92 79.4051 304.922 76.0478C306.472 74.8857 307.957 74.3047 309.377 74.3047C311.443 74.3047 313.186 75.144 314.607 76.8226C316.156 78.5012 316.931 80.438 316.931 82.6331C316.931 83.537 316.737 84.57 316.35 85.7321C315.962 86.7651 315.252 87.7981 314.219 88.8311C310.733 91.6718 306.988 93.6732 302.985 94.8353C299.112 96.1266 295.303 96.7722 291.558 96.7722ZM336.337 96.7722C333.884 96.7722 331.818 96.062 330.139 94.6416C328.461 93.2213 327.621 91.4136 327.621 89.2185V17.1675C327.621 15.1015 328.396 13.3583 329.946 11.938C331.624 10.3885 333.755 9.61375 336.337 9.61375C338.791 9.61375 340.792 10.3885 342.341 11.938C343.891 13.3583 344.666 15.1661 344.666 17.3612V43.1213C346.344 41.1845 348.604 39.635 351.445 38.4729C354.285 37.3108 357.32 36.7297 360.548 36.7297C367.779 36.7297 373.589 38.8602 377.98 43.1213C382.499 47.3824 384.759 54.1614 384.759 63.4583V89.6058C384.759 91.6718 383.919 93.415 382.241 94.8353C380.691 96.1266 378.69 96.7722 376.236 96.7722C373.783 96.7722 371.717 96.062 370.038 94.6416C368.489 93.2213 367.714 91.4136 367.714 89.2185V65.5888C367.714 60.8113 366.617 57.3895 364.422 55.3235C362.356 53.2575 359.773 52.2245 356.674 52.2245C353.446 52.2245 350.799 53.3221 348.733 55.5172C346.667 57.5832 345.311 59.9074 344.666 62.4899V89.0248C344.666 91.2199 343.826 93.0922 342.148 94.6416C340.598 96.062 338.661 96.7722 336.337 96.7722Z" fill="white"/>
<path d="M418.954 98.5644C416.746 98.5644 414.979 97.9018 413.654 96.5767C412.328 95.2516 411.666 93.5584 411.666 91.497V49.3139C411.666 47.8416 410.93 47.1054 409.457 47.1054H404.378C402.464 47.1054 400.844 46.5165 399.519 45.3386C398.194 44.0134 397.531 42.3939 397.531 40.4798C397.531 38.4185 398.194 36.7253 399.519 35.4001C400.844 34.075 402.464 33.4125 404.378 33.4125H409.457C410.93 33.4125 411.666 32.6763 411.666 31.2039V25.4617C411.666 18.0999 413.58 12.2841 417.408 8.01426C421.383 3.59718 426.978 1.38864 434.193 1.38864C435.813 1.38864 437.432 1.60949 439.052 2.0512C440.819 2.34567 442.144 2.64014 443.027 2.93462C445.825 3.96527 447.223 6.02657 447.223 9.11853C447.223 11.4743 446.487 13.3148 445.015 14.6399C443.69 15.8178 442.07 16.4067 440.156 16.4067C439.125 16.4067 438.168 16.2595 437.285 15.965C436.402 15.6705 435.15 15.5233 433.53 15.5233C431.027 15.5233 429.261 16.4067 428.23 18.1735C427.199 19.9404 426.684 22.517 426.684 25.9034V31.2039C426.684 32.6763 427.42 33.4125 428.893 33.4125H438.389C440.156 33.4125 441.702 34.075 443.027 35.4001C444.352 36.7253 445.015 38.4185 445.015 40.4798C445.015 42.3939 444.352 44.0134 443.027 45.3386C441.849 46.5165 440.23 47.1054 438.168 47.1054H428.893C427.42 47.1054 426.684 47.8416 426.684 49.3139V91.497C426.684 93.5584 425.948 95.2516 424.475 96.5767C423.003 97.9018 421.163 98.5644 418.954 98.5644ZM464.892 98.5644C462.978 98.5644 461.211 97.9754 459.591 96.7975C458.119 95.6197 457.383 93.9264 457.383 91.7179V38.713C457.383 36.2099 458.119 34.3695 459.591 33.1916C461.211 31.8665 462.978 31.2039 464.892 31.2039C466.806 31.2039 468.499 31.8665 469.971 33.1916C471.591 34.3695 472.401 36.2099 472.401 38.713V91.7179C472.401 93.9264 471.591 95.6197 469.971 96.7975C468.499 97.9754 466.806 98.5644 464.892 98.5644ZM465.113 19.0569C462.315 19.0569 459.886 18.1735 457.824 16.4067C455.91 14.4926 454.953 12.2105 454.953 9.56023C454.953 7.05722 455.91 4.9223 457.824 3.15547C459.886 1.2414 462.315 0.284363 465.113 0.284363C467.763 0.284363 470.045 1.2414 471.959 3.15547C473.873 4.9223 474.83 7.05722 474.83 9.56023C474.83 12.2105 473.873 14.4926 471.959 16.4067C470.045 18.1735 467.763 19.0569 465.113 19.0569Z" fill="url(#paint1_linear_89_32)"/>
<path d="M148.214 146.08C146.959 146.08 145.681 145.907 144.382 145.561C143.083 145.257 141.936 144.76 140.94 144.067C140.42 143.59 140.16 143.071 140.16 142.508C140.16 141.945 140.377 141.447 140.81 141.014C141.286 140.581 141.806 140.364 142.369 140.364C142.672 140.364 142.975 140.451 143.278 140.624C144.057 141.101 144.945 141.49 145.941 141.793C146.98 142.053 147.955 142.183 148.864 142.183C149.73 142.183 150.466 142.032 151.072 141.728C151.722 141.425 152.046 140.927 152.046 140.235C152.046 139.542 151.743 139.022 151.137 138.676C150.531 138.329 149.492 138.07 148.019 137.896C147.413 137.81 146.677 137.701 145.811 137.572C144.988 137.442 144.166 137.203 143.343 136.857C142.52 136.511 141.827 135.991 141.265 135.298C140.702 134.605 140.42 133.674 140.42 132.505C140.42 130.6 141.113 129.085 142.499 127.959C143.928 126.833 145.833 126.27 148.214 126.27C149.6 126.27 150.899 126.443 152.111 126.79C153.367 127.136 154.298 127.569 154.904 128.089C155.381 128.478 155.619 128.933 155.619 129.453C155.619 130.016 155.424 130.514 155.034 130.947C154.644 131.38 154.168 131.596 153.605 131.596C153.302 131.596 153.021 131.531 152.761 131.401C152.068 131.011 151.289 130.73 150.423 130.557C149.6 130.34 148.799 130.232 148.019 130.232C147.11 130.232 146.331 130.384 145.681 130.687C145.075 130.947 144.772 131.38 144.772 131.986C144.772 132.419 144.945 132.808 145.292 133.155C145.681 133.458 146.655 133.718 148.214 133.934C148.95 134.021 149.773 134.151 150.682 134.324C151.635 134.497 152.544 134.779 153.41 135.168C154.276 135.515 154.991 136.078 155.554 136.857C156.117 137.637 156.398 138.697 156.398 140.04C156.398 141.425 156.008 142.573 155.229 143.482C154.45 144.348 153.432 144.998 152.176 145.431C150.964 145.864 149.643 146.08 148.214 146.08ZM162.181 146.08C161.618 146.08 161.099 145.907 160.623 145.561C160.19 145.214 159.973 144.716 159.973 144.067V119.385C159.973 118.649 160.19 118.108 160.623 117.761C161.099 117.372 161.618 117.177 162.181 117.177C162.744 117.177 163.242 117.372 163.675 117.761C164.152 118.108 164.39 118.649 164.39 119.385V128.673C165.083 127.937 165.992 127.353 167.118 126.92C168.287 126.487 169.369 126.27 170.365 126.27C172.617 126.27 174.522 127.049 176.081 128.608C177.683 130.167 178.484 132.462 178.484 135.493V144.067C178.484 144.716 178.246 145.214 177.77 145.561C177.293 145.907 176.795 146.08 176.276 146.08C175.713 146.08 175.193 145.907 174.717 145.561C174.284 145.214 174.067 144.716 174.067 144.067V135.883C174.067 133.978 173.634 132.57 172.768 131.661C171.946 130.752 170.842 130.297 169.456 130.297C167.594 130.297 166.273 130.882 165.494 132.051C164.758 133.177 164.39 134.432 164.39 135.818V144.067C164.39 144.716 164.152 145.214 163.675 145.561C163.242 145.907 162.744 146.08 162.181 146.08ZM191.432 146.08C189.57 146.08 187.903 145.647 186.431 144.781C184.959 143.915 183.811 142.724 182.989 141.209C182.166 139.65 181.755 137.918 181.755 136.013C181.755 134.151 182.166 132.484 182.989 131.011C183.811 129.539 184.959 128.392 186.431 127.569C187.903 126.703 189.57 126.27 191.432 126.27C192.645 126.27 193.727 126.487 194.68 126.92C195.632 127.309 196.455 127.829 197.148 128.478C197.235 127.872 197.494 127.418 197.927 127.114C198.36 126.768 198.837 126.595 199.356 126.595C199.919 126.595 200.417 126.79 200.85 127.179C201.327 127.526 201.565 128.067 201.565 128.803V144.067C201.565 144.716 201.327 145.214 200.85 145.561C200.417 145.907 199.919 146.08 199.356 146.08C198.793 146.08 198.274 145.907 197.798 145.561C197.365 145.214 197.148 144.716 197.148 144.067V143.807C196.455 144.5 195.632 145.041 194.68 145.431C193.727 145.864 192.645 146.08 191.432 146.08ZM191.822 142.053C193.467 142.053 194.766 141.512 195.719 140.429C196.672 139.304 197.148 137.831 197.148 136.013C197.148 134.281 196.672 132.895 195.719 131.856C194.766 130.817 193.467 130.297 191.822 130.297C190.133 130.297 188.769 130.817 187.73 131.856C186.691 132.895 186.171 134.281 186.171 136.013C186.171 137.831 186.691 139.304 187.73 140.429C188.769 141.512 190.133 142.053 191.822 142.053ZM216.267 146.08C215.054 146.08 213.972 145.864 213.019 145.431C212.066 145.041 211.244 144.5 210.551 143.807V152.835C210.551 153.485 210.313 153.983 209.836 154.329C209.403 154.675 208.905 154.849 208.342 154.849C207.78 154.849 207.26 154.675 206.784 154.329C206.351 153.983 206.134 153.485 206.134 152.835V128.803C206.134 128.067 206.351 127.526 206.784 127.179C207.26 126.79 207.78 126.595 208.342 126.595C208.862 126.595 209.338 126.768 209.771 127.114C210.204 127.418 210.464 127.872 210.551 128.478C211.244 127.829 212.066 127.309 213.019 126.92C213.972 126.487 215.054 126.27 216.267 126.27C218.172 126.27 219.839 126.703 221.268 127.569C222.74 128.392 223.887 129.539 224.71 131.011C225.533 132.484 225.944 134.151 225.944 136.013C225.944 137.918 225.533 139.65 224.71 141.209C223.887 142.724 222.74 143.915 221.268 144.781C219.839 145.647 218.172 146.08 216.267 146.08ZM215.877 142.053C217.566 142.053 218.93 141.512 219.969 140.429C221.008 139.304 221.528 137.831 221.528 136.013C221.528 134.281 221.008 132.895 219.969 131.856C218.93 130.817 217.566 130.297 215.877 130.297C214.231 130.297 212.932 130.817 211.98 131.856C211.027 132.895 210.551 134.281 210.551 136.013C210.551 137.831 211.027 139.304 211.98 140.429C212.932 141.512 214.231 142.053 215.877 142.053ZM231.805 146.08C231.242 146.08 230.723 145.907 230.246 145.561C229.813 145.214 229.597 144.716 229.597 144.067V128.478C229.597 127.742 229.813 127.201 230.246 126.855C230.723 126.465 231.242 126.27 231.805 126.27C232.368 126.27 232.866 126.465 233.299 126.855C233.775 127.201 234.013 127.742 234.013 128.478V144.067C234.013 144.716 233.775 145.214 233.299 145.561C232.866 145.907 232.368 146.08 231.805 146.08ZM231.87 122.698C231.047 122.698 230.333 122.438 229.727 121.918C229.164 121.355 228.882 120.684 228.882 119.905C228.882 119.169 229.164 118.541 229.727 118.021C230.333 117.458 231.047 117.177 231.87 117.177C232.649 117.177 233.321 117.458 233.884 118.021C234.446 118.541 234.728 119.169 234.728 119.905C234.728 120.684 234.446 121.355 233.884 121.918C233.321 122.438 232.649 122.698 231.87 122.698ZM255.278 146.08C254.715 146.08 254.195 145.907 253.719 145.561C253.286 145.214 253.07 144.716 253.07 144.067V135.883C253.07 133.978 252.637 132.57 251.771 131.661C250.948 130.752 249.844 130.297 248.458 130.297C246.683 130.297 245.384 130.882 244.561 132.051C243.782 133.177 243.392 134.432 243.392 135.818V144.067C243.392 144.716 243.154 145.214 242.677 145.561C242.244 145.907 241.746 146.08 241.183 146.08C240.621 146.08 240.101 145.907 239.625 145.561C239.192 145.214 238.975 144.716 238.975 144.067V128.803C238.975 128.067 239.192 127.526 239.625 127.179C240.101 126.79 240.621 126.595 241.183 126.595C241.746 126.595 242.244 126.79 242.677 127.179C243.154 127.526 243.392 128.067 243.392 128.803C244.128 128.067 245.081 127.461 246.25 126.984C247.419 126.508 248.523 126.27 249.562 126.27C251.987 126.27 253.914 127.049 255.343 128.608C256.772 130.167 257.486 132.462 257.486 135.493V144.067C257.486 144.716 257.248 145.214 256.772 145.561C256.295 145.907 255.798 146.08 255.278 146.08ZM270.045 154.524C269.135 154.524 268.118 154.437 266.992 154.264C265.866 154.091 264.762 153.723 263.679 153.16C262.857 152.727 262.445 152.056 262.445 151.146C262.445 150.627 262.619 150.15 262.965 149.717C263.355 149.284 263.831 149.068 264.394 149.068C264.784 149.068 265.173 149.176 265.563 149.393C266.386 149.826 267.208 150.129 268.031 150.302C268.854 150.475 269.655 150.562 270.434 150.562C271.993 150.562 273.336 150.15 274.461 149.328C275.587 148.548 276.15 147.293 276.15 145.561V143.742C275.414 144.478 274.548 145.041 273.552 145.431C272.599 145.864 271.517 146.08 270.305 146.08C268.529 146.08 266.905 145.647 265.433 144.781C264.004 143.915 262.857 142.724 261.991 141.209C261.168 139.693 260.757 137.983 260.757 136.078C260.757 134.172 261.168 132.462 261.991 130.947C262.813 129.431 263.939 128.24 265.368 127.374C266.797 126.508 268.421 126.14 270.24 126.27C271.495 126.357 272.599 126.616 273.552 127.049C274.548 127.439 275.414 127.98 276.15 128.673C276.15 128.067 276.345 127.569 276.735 127.179C277.168 126.79 277.709 126.595 278.358 126.595C279.008 126.595 279.528 126.79 279.917 127.179C280.35 127.569 280.567 128.067 280.567 128.673V145.69C280.567 147.682 280.091 149.328 279.138 150.627C278.229 151.969 276.973 152.943 275.371 153.55C273.769 154.199 271.993 154.524 270.045 154.524ZM270.824 142.053C272.47 142.053 273.769 141.512 274.721 140.429C275.674 139.304 276.15 137.831 276.15 136.013C276.15 134.281 275.674 132.895 274.721 131.856C273.769 130.817 272.47 130.297 270.824 130.297C269.135 130.297 267.771 130.817 266.732 131.856C265.693 132.895 265.173 134.302 265.173 136.078C265.173 137.81 265.671 139.239 266.667 140.364C267.706 141.49 269.092 142.053 270.824 142.053ZM305.471 146.08C303.782 146.08 302.397 145.561 301.314 144.521C300.232 143.482 299.69 141.923 299.69 139.845V131.596C299.69 131.163 299.474 130.947 299.041 130.947H297.872C297.309 130.947 296.833 130.773 296.443 130.427C296.053 130.037 295.858 129.561 295.858 128.998C295.858 128.392 296.053 127.894 296.443 127.504C296.833 127.114 297.309 126.92 297.872 126.92H299.041C299.474 126.92 299.69 126.703 299.69 126.27V120.814C299.69 120.208 299.885 119.732 300.275 119.385C300.708 118.995 301.228 118.801 301.834 118.801C302.483 118.801 303.003 118.995 303.393 119.385C303.826 119.732 304.042 120.208 304.042 120.814V126.27C304.042 126.703 304.259 126.92 304.692 126.92H308.199C308.719 126.92 309.173 127.114 309.563 127.504C309.953 127.894 310.148 128.392 310.148 128.998C310.148 129.561 309.953 130.037 309.563 130.427C309.217 130.773 308.74 130.947 308.134 130.947H304.692C304.259 130.947 304.042 131.163 304.042 131.596V139.26C304.042 141.079 304.778 141.988 306.25 141.988C306.683 141.988 307.138 141.923 307.614 141.793C308.091 141.663 308.416 141.599 308.589 141.599C309.195 141.599 309.65 141.793 309.953 142.183C310.299 142.573 310.472 143.027 310.472 143.547C310.472 143.937 310.364 144.326 310.148 144.716C309.931 145.063 309.585 145.322 309.108 145.496C308.632 145.669 308.026 145.799 307.29 145.885C306.597 146.015 305.991 146.08 305.471 146.08ZM315.619 146.08C315.056 146.08 314.536 145.907 314.06 145.561C313.627 145.214 313.41 144.716 313.41 144.067V119.385C313.41 118.649 313.627 118.108 314.06 117.761C314.536 117.372 315.056 117.177 315.619 117.177C316.182 117.177 316.68 117.372 317.113 117.761C317.589 118.108 317.827 118.649 317.827 119.385V128.673C318.52 127.937 319.429 127.353 320.555 126.92C321.724 126.487 322.807 126.27 323.803 126.27C326.054 126.27 327.959 127.049 329.518 128.608C331.12 130.167 331.921 132.462 331.921 135.493V144.067C331.921 144.716 331.683 145.214 331.207 145.561C330.731 145.907 330.233 146.08 329.713 146.08C329.15 146.08 328.631 145.907 328.154 145.561C327.721 145.214 327.505 144.716 327.505 144.067V135.883C327.505 133.978 327.072 132.57 326.206 131.661C325.383 130.752 324.279 130.297 322.893 130.297C321.031 130.297 319.711 130.882 318.931 132.051C318.195 133.177 317.827 134.432 317.827 135.818V144.067C317.827 144.716 317.589 145.214 317.113 145.561C316.68 145.907 316.182 146.08 315.619 146.08ZM345.519 146.08C342.272 146.08 339.738 145.149 337.92 143.287C336.101 141.425 335.192 138.914 335.192 135.753C335.192 132.982 336.101 130.708 337.92 128.933C339.782 127.158 342.163 126.27 345.064 126.27C347.879 126.27 350.131 127.093 351.819 128.738C353.508 130.34 354.353 132.332 354.353 134.714C354.353 135.666 354.093 136.381 353.573 136.857C353.097 137.333 352.469 137.572 351.69 137.572H340.388C339.955 137.572 339.803 137.81 339.933 138.286C340.28 139.498 340.973 140.451 342.012 141.144C343.094 141.793 344.307 142.118 345.649 142.118C346.645 142.118 347.598 141.988 348.507 141.728C349.46 141.469 350.282 141.079 350.975 140.559C351.192 140.386 351.473 140.3 351.819 140.3C352.296 140.3 352.729 140.516 353.118 140.949C353.508 141.339 353.703 141.815 353.703 142.378C353.703 142.638 353.66 142.898 353.573 143.157C353.486 143.417 353.292 143.677 352.989 143.937C351.863 144.76 350.65 145.322 349.351 145.626C348.096 145.929 346.818 146.08 345.519 146.08ZM349.286 134.194C349.546 134.194 349.676 134.064 349.676 133.804C349.676 132.808 349.221 131.942 348.312 131.206C347.446 130.47 346.364 130.102 345.064 130.102C343.939 130.102 342.856 130.405 341.817 131.011C340.821 131.618 340.215 132.419 339.998 133.415C339.998 133.415 339.998 133.436 339.998 133.48C339.955 133.653 339.933 133.804 339.933 133.934C339.977 134.064 340.171 134.129 340.518 134.129L349.286 134.194ZM374.627 146.08C373.978 146.08 373.458 145.885 373.069 145.496C372.679 145.106 372.484 144.608 372.484 144.002V131.596C372.484 131.163 372.268 130.947 371.835 130.947H370.341C369.778 130.947 369.301 130.773 368.912 130.427C368.522 130.037 368.327 129.561 368.327 128.998C368.327 128.392 368.522 127.894 368.912 127.504C369.301 127.114 369.778 126.92 370.341 126.92H371.835C372.268 126.92 372.484 126.703 372.484 126.27V124.581C372.484 122.416 373.047 120.706 374.173 119.45C375.342 118.151 376.987 117.502 379.109 117.502C379.585 117.502 380.062 117.567 380.538 117.696C381.058 117.783 381.447 117.87 381.707 117.956C382.53 118.259 382.941 118.866 382.941 119.775C382.941 120.468 382.725 121.009 382.292 121.399C381.902 121.745 381.426 121.918 380.863 121.918C380.56 121.918 380.278 121.875 380.018 121.788C379.759 121.702 379.391 121.658 378.914 121.658C378.178 121.658 377.659 121.918 377.355 122.438C377.052 122.958 376.901 123.715 376.901 124.711V126.27C376.901 126.703 377.117 126.92 377.55 126.92H380.343C380.863 126.92 381.317 127.114 381.707 127.504C382.097 127.894 382.292 128.392 382.292 128.998C382.292 129.561 382.097 130.037 381.707 130.427C381.361 130.773 380.884 130.947 380.278 130.947H377.55C377.117 130.947 376.901 131.163 376.901 131.596V144.002C376.901 144.608 376.684 145.106 376.251 145.496C375.818 145.885 375.277 146.08 374.627 146.08ZM399.007 128.413C399.007 127.807 399.202 127.309 399.592 126.92C400.025 126.487 400.566 126.27 401.215 126.27C401.822 126.27 402.341 126.487 402.774 126.92C403.207 127.309 403.424 127.807 403.424 128.413V137.572C403.424 139.52 402.991 141.122 402.125 142.378C401.259 143.634 400.133 144.565 398.747 145.171C397.362 145.777 395.889 146.08 394.331 146.08C392.772 146.08 391.299 145.777 389.914 145.171C388.528 144.565 387.402 143.634 386.536 142.378C385.67 141.122 385.237 139.52 385.237 137.572V128.413C385.237 127.807 385.432 127.309 385.822 126.92C386.255 126.487 386.796 126.27 387.446 126.27C388.052 126.27 388.572 126.487 389.005 126.92C389.438 127.309 389.654 127.807 389.654 128.413V137.572C389.654 139.174 390.13 140.321 391.083 141.014C392.036 141.707 393.118 142.053 394.331 142.053C395.586 142.053 396.669 141.707 397.578 141.014C398.531 140.321 399.007 139.174 399.007 137.572V128.413ZM415.284 146.08C413.596 146.08 412.21 145.561 411.128 144.521C410.045 143.482 409.504 141.923 409.504 139.845V131.596C409.504 131.163 409.287 130.947 408.854 130.947H407.685C407.122 130.947 406.646 130.773 406.256 130.427C405.867 130.037 405.672 129.561 405.672 128.998C405.672 128.392 405.867 127.894 406.256 127.504C406.646 127.114 407.122 126.92 407.685 126.92H408.854C409.287 126.92 409.504 126.703 409.504 126.27V120.814C409.504 120.208 409.699 119.732 410.088 119.385C410.521 118.995 411.041 118.801 411.647 118.801C412.297 118.801 412.816 118.995 413.206 119.385C413.639 119.732 413.856 120.208 413.856 120.814V126.27C413.856 126.703 414.072 126.92 414.505 126.92H418.012C418.532 126.92 418.987 127.114 419.376 127.504C419.766 127.894 419.961 128.392 419.961 128.998C419.961 129.561 419.766 130.037 419.376 130.427C419.03 130.773 418.554 130.947 417.947 130.947H414.505C414.072 130.947 413.856 131.163 413.856 131.596V139.26C413.856 141.079 414.592 141.988 416.064 141.988C416.497 141.988 416.952 141.923 417.428 141.793C417.904 141.663 418.229 141.599 418.402 141.599C419.008 141.599 419.463 141.793 419.766 142.183C420.113 142.573 420.286 143.027 420.286 143.547C420.286 143.937 420.177 144.326 419.961 144.716C419.744 145.063 419.398 145.322 418.922 145.496C418.445 145.669 417.839 145.799 417.103 145.885C416.41 146.015 415.804 146.08 415.284 146.08ZM436.669 128.413C436.669 127.807 436.864 127.309 437.253 126.92C437.686 126.487 438.228 126.27 438.877 126.27C439.483 126.27 440.003 126.487 440.436 126.92C440.869 127.309 441.085 127.807 441.085 128.413V137.572C441.085 139.52 440.652 141.122 439.786 142.378C438.92 143.634 437.794 144.565 436.409 145.171C435.023 145.777 433.551 146.08 431.992 146.08C430.433 146.08 428.961 145.777 427.575 145.171C426.19 144.565 425.064 143.634 424.198 142.378C423.332 141.122 422.899 139.52 422.899 137.572V128.413C422.899 127.807 423.094 127.309 423.484 126.92C423.917 126.487 424.458 126.27 425.107 126.27C425.714 126.27 426.233 126.487 426.666 126.92C427.099 127.309 427.316 127.807 427.316 128.413V137.572C427.316 139.174 427.792 140.321 428.745 141.014C429.697 141.707 430.78 142.053 431.992 142.053C433.248 142.053 434.33 141.707 435.24 141.014C436.192 140.321 436.669 139.174 436.669 137.572V128.413ZM450.023 135.818V144.067C450.023 144.716 449.785 145.214 449.309 145.561C448.876 145.907 448.378 146.08 447.815 146.08C447.252 146.08 446.732 145.907 446.256 145.561C445.823 145.214 445.607 144.716 445.607 144.067V128.803C445.607 128.067 445.823 127.526 446.256 127.179C446.732 126.79 447.252 126.595 447.815 126.595C448.378 126.595 448.876 126.79 449.309 127.179C449.785 127.526 450.023 128.067 450.023 128.803V129.063C450.629 128.24 451.409 127.569 452.362 127.049C453.357 126.53 454.397 126.27 455.479 126.27C455.999 126.27 456.518 126.335 457.038 126.465C457.558 126.595 457.947 126.855 458.207 127.244C458.467 127.634 458.597 128.067 458.597 128.543C458.597 129.106 458.402 129.626 458.012 130.102C457.666 130.535 457.146 130.752 456.453 130.752C456.15 130.752 455.826 130.708 455.479 130.622C455.176 130.535 454.786 130.492 454.31 130.492C453.054 130.492 452.015 130.968 451.192 131.921C450.413 132.873 450.023 134.172 450.023 135.818ZM469.596 146.08C466.349 146.08 463.816 145.149 461.997 143.287C460.178 141.425 459.269 138.914 459.269 135.753C459.269 132.982 460.178 130.708 461.997 128.933C463.859 127.158 466.241 126.27 469.142 126.27C471.956 126.27 474.208 127.093 475.897 128.738C477.585 130.34 478.43 132.332 478.43 134.714C478.43 135.666 478.17 136.381 477.65 136.857C477.174 137.333 476.546 137.572 475.767 137.572H464.465C464.032 137.572 463.881 137.81 464.011 138.286C464.357 139.498 465.05 140.451 466.089 141.144C467.172 141.793 468.384 142.118 469.726 142.118C470.722 142.118 471.675 141.988 472.584 141.728C473.537 141.469 474.36 141.079 475.052 140.559C475.269 140.386 475.55 140.3 475.897 140.3C476.373 140.3 476.806 140.516 477.196 140.949C477.585 141.339 477.78 141.815 477.78 142.378C477.78 142.638 477.737 142.898 477.65 143.157C477.564 143.417 477.369 143.677 477.066 143.937C475.94 144.76 474.728 145.322 473.429 145.626C472.173 145.929 470.895 146.08 469.596 146.08ZM473.364 134.194C473.623 134.194 473.753 134.064 473.753 133.804C473.753 132.808 473.299 131.942 472.389 131.206C471.523 130.47 470.441 130.102 469.142 130.102C468.016 130.102 466.933 130.405 465.894 131.011C464.898 131.618 464.292 132.419 464.076 133.415C464.076 133.415 464.076 133.436 464.076 133.48C464.032 133.653 464.011 133.804 464.011 133.934C464.054 134.064 464.249 134.129 464.595 134.129L473.364 134.194Z" fill="url(#paint2_linear_89_32)"/>
<path d="M148.214 146.08C146.959 146.08 145.681 145.907 144.382 145.561C143.083 145.257 141.936 144.76 140.94 144.067C140.42 143.59 140.16 143.071 140.16 142.508C140.16 141.945 140.377 141.447 140.81 141.014C141.286 140.581 141.806 140.364 142.369 140.364C142.672 140.364 142.975 140.451 143.278 140.624C144.057 141.101 144.945 141.49 145.941 141.793C146.98 142.053 147.955 142.183 148.864 142.183C149.73 142.183 150.466 142.032 151.072 141.728C151.722 141.425 152.046 140.927 152.046 140.235C152.046 139.542 151.743 139.022 151.137 138.676C150.531 138.329 149.492 138.07 148.019 137.896C147.413 137.81 146.677 137.701 145.811 137.572C144.988 137.442 144.166 137.203 143.343 136.857C142.52 136.511 141.827 135.991 141.265 135.298C140.702 134.605 140.42 133.674 140.42 132.505C140.42 130.6 141.113 129.085 142.499 127.959C143.928 126.833 145.833 126.27 148.214 126.27C149.6 126.27 150.899 126.443 152.111 126.79C153.367 127.136 154.298 127.569 154.904 128.089C155.381 128.478 155.619 128.933 155.619 129.453C155.619 130.016 155.424 130.514 155.034 130.947C154.644 131.38 154.168 131.596 153.605 131.596C153.302 131.596 153.021 131.531 152.761 131.401C152.068 131.011 151.289 130.73 150.423 130.557C149.6 130.34 148.799 130.232 148.019 130.232C147.11 130.232 146.331 130.384 145.681 130.687C145.075 130.947 144.772 131.38 144.772 131.986C144.772 132.419 144.945 132.808 145.292 133.155C145.681 133.458 146.655 133.718 148.214 133.934C148.95 134.021 149.773 134.151 150.682 134.324C151.635 134.497 152.544 134.779 153.41 135.168C154.276 135.515 154.991 136.078 155.554 136.857C156.117 137.637 156.398 138.697 156.398 140.04C156.398 141.425 156.008 142.573 155.229 143.482C154.45 144.348 153.432 144.998 152.176 145.431C150.964 145.864 149.643 146.08 148.214 146.08ZM162.181 146.08C161.618 146.08 161.099 145.907 160.623 145.561C160.19 145.214 159.973 144.716 159.973 144.067V119.385C159.973 118.649 160.19 118.108 160.623 117.761C161.099 117.372 161.618 117.177 162.181 117.177C162.744 117.177 163.242 117.372 163.675 117.761C164.152 118.108 164.39 118.649 164.39 119.385V128.673C165.083 127.937 165.992 127.353 167.118 126.92C168.287 126.487 169.369 126.27 170.365 126.27C172.617 126.27 174.522 127.049 176.081 128.608C177.683 130.167 178.484 132.462 178.484 135.493V144.067C178.484 144.716 178.246 145.214 177.77 145.561C177.293 145.907 176.795 146.08 176.276 146.08C175.713 146.08 175.193 145.907 174.717 145.561C174.284 145.214 174.067 144.716 174.067 144.067V135.883C174.067 133.978 173.634 132.57 172.768 131.661C171.946 130.752 170.842 130.297 169.456 130.297C167.594 130.297 166.273 130.882 165.494 132.051C164.758 133.177 164.39 134.432 164.39 135.818V144.067C164.39 144.716 164.152 145.214 163.675 145.561C163.242 145.907 162.744 146.08 162.181 146.08ZM191.432 146.08C189.57 146.08 187.903 145.647 186.431 144.781C184.959 143.915 183.811 142.724 182.989 141.209C182.166 139.65 181.755 137.918 181.755 136.013C181.755 134.151 182.166 132.484 182.989 131.011C183.811 129.539 184.959 128.392 186.431 127.569C187.903 126.703 189.57 126.27 191.432 126.27C192.645 126.27 193.727 126.487 194.68 126.92C195.632 127.309 196.455 127.829 197.148 128.478C197.235 127.872 197.494 127.418 197.927 127.114C198.36 126.768 198.837 126.595 199.356 126.595C199.919 126.595 200.417 126.79 200.85 127.179C201.327 127.526 201.565 128.067 201.565 128.803V144.067C201.565 144.716 201.327 145.214 200.85 145.561C200.417 145.907 199.919 146.08 199.356 146.08C198.793 146.08 198.274 145.907 197.798 145.561C197.365 145.214 197.148 144.716 197.148 144.067V143.807C196.455 144.5 195.632 145.041 194.68 145.431C193.727 145.864 192.645 146.08 191.432 146.08ZM191.822 142.053C193.467 142.053 194.766 141.512 195.719 140.429C196.672 139.304 197.148 137.831 197.148 136.013C197.148 134.281 196.672 132.895 195.719 131.856C194.766 130.817 193.467 130.297 191.822 130.297C190.133 130.297 188.769 130.817 187.73 131.856C186.691 132.895 186.171 134.281 186.171 136.013C186.171 137.831 186.691 139.304 187.73 140.429C188.769 141.512 190.133 142.053 191.822 142.053ZM216.267 146.08C215.054 146.08 213.972 145.864 213.019 145.431C212.066 145.041 211.244 144.5 210.551 143.807V152.835C210.551 153.485 210.313 153.983 209.836 154.329C209.403 154.675 208.905 154.849 208.342 154.849C207.78 154.849 207.26 154.675 206.784 154.329C206.351 153.983 206.134 153.485 206.134 152.835V128.803C206.134 128.067 206.351 127.526 206.784 127.179C207.26 126.79 207.78 126.595 208.342 126.595C208.862 126.595 209.338 126.768 209.771 127.114C210.204 127.418 210.464 127.872 210.551 128.478C211.244 127.829 212.066 127.309 213.019 126.92C213.972 126.487 215.054 126.27 216.267 126.27C218.172 126.27 219.839 126.703 221.268 127.569C222.74 128.392 223.887 129.539 224.71 131.011C225.533 132.484 225.944 134.151 225.944 136.013C225.944 137.918 225.533 139.65 224.71 141.209C223.887 142.724 222.74 143.915 221.268 144.781C219.839 145.647 218.172 146.08 216.267 146.08ZM215.877 142.053C217.566 142.053 218.93 141.512 219.969 140.429C221.008 139.304 221.528 137.831 221.528 136.013C221.528 134.281 221.008 132.895 219.969 131.856C218.93 130.817 217.566 130.297 215.877 130.297C214.231 130.297 212.932 130.817 211.98 131.856C211.027 132.895 210.551 134.281 210.551 136.013C210.551 137.831 211.027 139.304 211.98 140.429C212.932 141.512 214.231 142.053 215.877 142.053ZM231.805 146.08C231.242 146.08 230.723 145.907 230.246 145.561C229.813 145.214 229.597 144.716 229.597 144.067V128.478C229.597 127.742 229.813 127.201 230.246 126.855C230.723 126.465 231.242 126.27 231.805 126.27C232.368 126.27 232.866 126.465 233.299 126.855C233.775 127.201 234.013 127.742 234.013 128.478V144.067C234.013 144.716 233.775 145.214 233.299 145.561C232.866 145.907 232.368 146.08 231.805 146.08ZM231.87 122.698C231.047 122.698 230.333 122.438 229.727 121.918C229.164 121.355 228.882 120.684 228.882 119.905C228.882 119.169 229.164 118.541 229.727 118.021C230.333 117.458 231.047 117.177 231.87 117.177C232.649 117.177 233.321 117.458 233.884 118.021C234.446 118.541 234.728 119.169 234.728 119.905C234.728 120.684 234.446 121.355 233.884 121.918C233.321 122.438 232.649 122.698 231.87 122.698ZM255.278 146.08C254.715 146.08 254.195 145.907 253.719 145.561C253.286 145.214 253.07 144.716 253.07 144.067V135.883C253.07 133.978 252.637 132.57 251.771 131.661C250.948 130.752 249.844 130.297 248.458 130.297C246.683 130.297 245.384 130.882 244.561 132.051C243.782 133.177 243.392 134.432 243.392 135.818V144.067C243.392 144.716 243.154 145.214 242.677 145.561C242.244 145.907 241.746 146.08 241.183 146.08C240.621 146.08 240.101 145.907 239.625 145.561C239.192 145.214 238.975 144.716 238.975 144.067V128.803C238.975 128.067 239.192 127.526 239.625 127.179C240.101 126.79 240.621 126.595 241.183 126.595C241.746 126.595 242.244 126.79 242.677 127.179C243.154 127.526 243.392 128.067 243.392 128.803C244.128 128.067 245.081 127.461 246.25 126.984C247.419 126.508 248.523 126.27 249.562 126.27C251.987 126.27 253.914 127.049 255.343 128.608C256.772 130.167 257.486 132.462 257.486 135.493V144.067C257.486 144.716 257.248 145.214 256.772 145.561C256.295 145.907 255.798 146.08 255.278 146.08ZM270.045 154.524C269.135 154.524 268.118 154.437 266.992 154.264C265.866 154.091 264.762 153.723 263.679 153.16C262.857 152.727 262.445 152.056 262.445 151.146C262.445 150.627 262.619 150.15 262.965 149.717C263.355 149.284 263.831 149.068 264.394 149.068C264.784 149.068 265.173 149.176 265.563 149.393C266.386 149.826 267.208 150.129 268.031 150.302C268.854 150.475 269.655 150.562 270.434 150.562C271.993 150.562 273.336 150.15 274.461 149.328C275.587 148.548 276.15 147.293 276.15 145.561V143.742C275.414 144.478 274.548 145.041 273.552 145.431C272.599 145.864 271.517 146.08 270.305 146.08C268.529 146.08 266.905 145.647 265.433 144.781C264.004 143.915 262.857 142.724 261.991 141.209C261.168 139.693 260.757 137.983 260.757 136.078C260.757 134.172 261.168 132.462 261.991 130.947C262.813 129.431 263.939 128.24 265.368 127.374C266.797 126.508 268.421 126.14 270.24 126.27C271.495 126.357 272.599 126.616 273.552 127.049C274.548 127.439 275.414 127.98 276.15 128.673C276.15 128.067 276.345 127.569 276.735 127.179C277.168 126.79 277.709 126.595 278.358 126.595C279.008 126.595 279.528 126.79 279.917 127.179C280.35 127.569 280.567 128.067 280.567 128.673V145.69C280.567 147.682 280.091 149.328 279.138 150.627C278.229 151.969 276.973 152.943 275.371 153.55C273.769 154.199 271.993 154.524 270.045 154.524ZM270.824 142.053C272.47 142.053 273.769 141.512 274.721 140.429C275.674 139.304 276.15 137.831 276.15 136.013C276.15 134.281 275.674 132.895 274.721 131.856C273.769 130.817 272.47 130.297 270.824 130.297C269.135 130.297 267.771 130.817 266.732 131.856C265.693 132.895 265.173 134.302 265.173 136.078C265.173 137.81 265.671 139.239 266.667 140.364C267.706 141.49 269.092 142.053 270.824 142.053ZM305.471 146.08C303.782 146.08 302.397 145.561 301.314 144.521C300.232 143.482 299.69 141.923 299.69 139.845V131.596C299.69 131.163 299.474 130.947 299.041 130.947H297.872C297.309 130.947 296.833 130.773 296.443 130.427C296.053 130.037 295.858 129.561 295.858 128.998C295.858 128.392 296.053 127.894 296.443 127.504C296.833 127.114 297.309 126.92 297.872 126.92H299.041C299.474 126.92 299.69 126.703 299.69 126.27V120.814C299.69 120.208 299.885 119.732 300.275 119.385C300.708 118.995 301.228 118.801 301.834 118.801C302.483 118.801 303.003 118.995 303.393 119.385C303.826 119.732 304.042 120.208 304.042 120.814V126.27C304.042 126.703 304.259 126.92 304.692 126.92H308.199C308.719 126.92 309.173 127.114 309.563 127.504C309.953 127.894 310.148 128.392 310.148 128.998C310.148 129.561 309.953 130.037 309.563 130.427C309.217 130.773 308.74 130.947 308.134 130.947H304.692C304.259 130.947 304.042 131.163 304.042 131.596V139.26C304.042 141.079 304.778 141.988 306.25 141.988C306.683 141.988 307.138 141.923 307.614 141.793C308.091 141.663 308.416 141.599 308.589 141.599C309.195 141.599 309.65 141.793 309.953 142.183C310.299 142.573 310.472 143.027 310.472 143.547C310.472 143.937 310.364 144.326 310.148 144.716C309.931 145.063 309.585 145.322 309.108 145.496C308.632 145.669 308.026 145.799 307.29 145.885C306.597 146.015 305.991 146.08 305.471 146.08ZM315.619 146.08C315.056 146.08 314.536 145.907 314.06 145.561C313.627 145.214 313.41 144.716 313.41 144.067V119.385C313.41 118.649 313.627 118.108 314.06 117.761C314.536 117.372 315.056 117.177 315.619 117.177C316.182 117.177 316.68 117.372 317.113 117.761C317.589 118.108 317.827 118.649 317.827 119.385V128.673C318.52 127.937 319.429 127.353 320.555 126.92C321.724 126.487 322.807 126.27 323.803 126.27C326.054 126.27 327.959 127.049 329.518 128.608C331.12 130.167 331.921 132.462 331.921 135.493V144.067C331.921 144.716 331.683 145.214 331.207 145.561C330.731 145.907 330.233 146.08 329.713 146.08C329.15 146.08 328.631 145.907 328.154 145.561C327.721 145.214 327.505 144.716 327.505 144.067V135.883C327.505 133.978 327.072 132.57 326.206 131.661C325.383 130.752 324.279 130.297 322.893 130.297C321.031 130.297 319.711 130.882 318.931 132.051C318.195 133.177 317.827 134.432 317.827 135.818V144.067C317.827 144.716 317.589 145.214 317.113 145.561C316.68 145.907 316.182 146.08 315.619 146.08ZM345.519 146.08C342.272 146.08 339.738 145.149 337.92 143.287C336.101 141.425 335.192 138.914 335.192 135.753C335.192 132.982 336.101 130.708 337.92 128.933C339.782 127.158 342.163 126.27 345.064 126.27C347.879 126.27 350.131 127.093 351.819 128.738C353.508 130.34 354.353 132.332 354.353 134.714C354.353 135.666 354.093 136.381 353.573 136.857C353.097 137.333 352.469 137.572 351.69 137.572H340.388C339.955 137.572 339.803 137.81 339.933 138.286C340.28 139.498 340.973 140.451 342.012 141.144C343.094 141.793 344.307 142.118 345.649 142.118C346.645 142.118 347.598 141.988 348.507 141.728C349.46 141.469 350.282 141.079 350.975 140.559C351.192 140.386 351.473 140.3 351.819 140.3C352.296 140.3 352.729 140.516 353.118 140.949C353.508 141.339 353.703 141.815 353.703 142.378C353.703 142.638 353.66 142.898 353.573 143.157C353.486 143.417 353.292 143.677 352.989 143.937C351.863 144.76 350.65 145.322 349.351 145.626C348.096 145.929 346.818 146.08 345.519 146.08ZM349.286 134.194C349.546 134.194 349.676 134.064 349.676 133.804C349.676 132.808 349.221 131.942 348.312 131.206C347.446 130.47 346.364 130.102 345.064 130.102C343.939 130.102 342.856 130.405 341.817 131.011C340.821 131.618 340.215 132.419 339.998 133.415C339.998 133.415 339.998 133.436 339.998 133.48C339.955 133.653 339.933 133.804 339.933 133.934C339.977 134.064 340.171 134.129 340.518 134.129L349.286 134.194ZM374.627 146.08C373.978 146.08 373.458 145.885 373.069 145.496C372.679 145.106 372.484 144.608 372.484 144.002V131.596C372.484 131.163 372.268 130.947 371.835 130.947H370.341C369.778 130.947 369.301 130.773 368.912 130.427C368.522 130.037 368.327 129.561 368.327 128.998C368.327 128.392 368.522 127.894 368.912 127.504C369.301 127.114 369.778 126.92 370.341 126.92H371.835C372.268 126.92 372.484 126.703 372.484 126.27V124.581C372.484 122.416 373.047 120.706 374.173 119.45C375.342 118.151 376.987 117.502 379.109 117.502C379.585 117.502 380.062 117.567 380.538 117.696C381.058 117.783 381.447 117.87 381.707 117.956C382.53 118.259 382.941 118.866 382.941 119.775C382.941 120.468 382.725 121.009 382.292 121.399C381.902 121.745 381.426 121.918 380.863 121.918C380.56 121.918 380.278 121.875 380.018 121.788C379.759 121.702 379.391 121.658 378.914 121.658C378.178 121.658 377.659 121.918 377.355 122.438C377.052 122.958 376.901 123.715 376.901 124.711V126.27C376.901 126.703 377.117 126.92 377.55 126.92H380.343C380.863 126.92 381.317 127.114 381.707 127.504C382.097 127.894 382.292 128.392 382.292 128.998C382.292 129.561 382.097 130.037 381.707 130.427C381.361 130.773 380.884 130.947 380.278 130.947H377.55C377.117 130.947 376.901 131.163 376.901 131.596V144.002C376.901 144.608 376.684 145.106 376.251 145.496C375.818 145.885 375.277 146.08 374.627 146.08ZM399.007 128.413C399.007 127.807 399.202 127.309 399.592 126.92C400.025 126.487 400.566 126.27 401.215 126.27C401.822 126.27 402.341 126.487 402.774 126.92C403.207 127.309 403.424 127.807 403.424 128.413V137.572C403.424 139.52 402.991 141.122 402.125 142.378C401.259 143.634 400.133 144.565 398.747 145.171C397.362 145.777 395.889 146.08 394.331 146.08C392.772 146.08 391.299 145.777 389.914 145.171C388.528 144.565 387.402 143.634 386.536 142.378C385.67 141.122 385.237 139.52 385.237 137.572V128.413C385.237 127.807 385.432 127.309 385.822 126.92C386.255 126.487 386.796 126.27 387.446 126.27C388.052 126.27 388.572 126.487 389.005 126.92C389.438 127.309 389.654 127.807 389.654 128.413V137.572C389.654 139.174 390.13 140.321 391.083 141.014C392.036 141.707 393.118 142.053 394.331 142.053C395.586 142.053 396.669 141.707 397.578 141.014C398.531 140.321 399.007 139.174 399.007 137.572V128.413ZM415.284 146.08C413.596 146.08 412.21 145.561 411.128 144.521C410.045 143.482 409.504 141.923 409.504 139.845V131.596C409.504 131.163 409.287 130.947 408.854 130.947H407.685C407.122 130.947 406.646 130.773 406.256 130.427C405.867 130.037 405.672 129.561 405.672 128.998C405.672 128.392 405.867 127.894 406.256 127.504C406.646 127.114 407.122 126.92 407.685 126.92H408.854C409.287 126.92 409.504 126.703 409.504 126.27V120.814C409.504 120.208 409.699 119.732 410.088 119.385C410.521 118.995 411.041 118.801 411.647 118.801C412.297 118.801 412.816 118.995 413.206 119.385C413.639 119.732 413.856 120.208 413.856 120.814V126.27C413.856 126.703 414.072 126.92 414.505 126.92H418.012C418.532 126.92 418.987 127.114 419.376 127.504C419.766 127.894 419.961 128.392 419.961 128.998C419.961 129.561 419.766 130.037 419.376 130.427C419.03 130.773 418.554 130.947 417.947 130.947H414.505C414.072 130.947 413.856 131.163 413.856 131.596V139.26C413.856 141.079 414.592 141.988 416.064 141.988C416.497 141.988 416.952 141.923 417.428 141.793C417.904 141.663 418.229 141.599 418.402 141.599C419.008 141.599 419.463 141.793 419.766 142.183C420.113 142.573 420.286 143.027 420.286 143.547C420.286 143.937 420.177 144.326 419.961 144.716C419.744 145.063 419.398 145.322 418.922 145.496C418.445 145.669 417.839 145.799 417.103 145.885C416.41 146.015 415.804 146.08 415.284 146.08ZM436.669 128.413C436.669 127.807 436.864 127.309 437.253 126.92C437.686 126.487 438.228 126.27 438.877 126.27C439.483 126.27 440.003 126.487 440.436 126.92C440.869 127.309 441.085 127.807 441.085 128.413V137.572C441.085 139.52 440.652 141.122 439.786 142.378C438.92 143.634 437.794 144.565 436.409 145.171C435.023 145.777 433.551 146.08 431.992 146.08C430.433 146.08 428.961 145.777 427.575 145.171C426.19 144.565 425.064 143.634 424.198 142.378C423.332 141.122 422.899 139.52 422.899 137.572V128.413C422.899 127.807 423.094 127.309 423.484 126.92C423.917 126.487 424.458 126.27 425.107 126.27C425.714 126.27 426.233 126.487 426.666 126.92C427.099 127.309 427.316 127.807 427.316 128.413V137.572C427.316 139.174 427.792 140.321 428.745 141.014C429.697 141.707 430.78 142.053 431.992 142.053C433.248 142.053 434.33 141.707 435.24 141.014C436.192 140.321 436.669 139.174 436.669 137.572V128.413ZM450.023 135.818V144.067C450.023 144.716 449.785 145.214 449.309 145.561C448.876 145.907 448.378 146.08 447.815 146.08C447.252 146.08 446.732 145.907 446.256 145.561C445.823 145.214 445.607 144.716 445.607 144.067V128.803C445.607 128.067 445.823 127.526 446.256 127.179C446.732 126.79 447.252 126.595 447.815 126.595C448.378 126.595 448.876 126.79 449.309 127.179C449.785 127.526 450.023 128.067 450.023 128.803V129.063C450.629 128.24 451.409 127.569 452.362 127.049C453.357 126.53 454.397 126.27 455.479 126.27C455.999 126.27 456.518 126.335 457.038 126.465C457.558 126.595 457.947 126.855 458.207 127.244C458.467 127.634 458.597 128.067 458.597 128.543C458.597 129.106 458.402 129.626 458.012 130.102C457.666 130.535 457.146 130.752 456.453 130.752C456.15 130.752 455.826 130.708 455.479 130.622C455.176 130.535 454.786 130.492 454.31 130.492C453.054 130.492 452.015 130.968 451.192 131.921C450.413 132.873 450.023 134.172 450.023 135.818ZM469.596 146.08C466.349 146.08 463.816 145.149 461.997 143.287C460.178 141.425 459.269 138.914 459.269 135.753C459.269 132.982 460.178 130.708 461.997 128.933C463.859 127.158 466.241 126.27 469.142 126.27C471.956 126.27 474.208 127.093 475.897 128.738C477.585 130.34 478.43 132.332 478.43 134.714C478.43 135.666 478.17 136.381 477.65 136.857C477.174 137.333 476.546 137.572 475.767 137.572H464.465C464.032 137.572 463.881 137.81 464.011 138.286C464.357 139.498 465.05 140.451 466.089 141.144C467.172 141.793 468.384 142.118 469.726 142.118C470.722 142.118 471.675 141.988 472.584 141.728C473.537 141.469 474.36 141.079 475.052 140.559C475.269 140.386 475.55 140.3 475.897 140.3C476.373 140.3 476.806 140.516 477.196 140.949C477.585 141.339 477.78 141.815 477.78 142.378C477.78 142.638 477.737 142.898 477.65 143.157C477.564 143.417 477.369 143.677 477.066 143.937C475.94 144.76 474.728 145.322 473.429 145.626C472.173 145.929 470.895 146.08 469.596 146.08ZM473.364 134.194C473.623 134.194 473.753 134.064 473.753 133.804C473.753 132.808 473.299 131.942 472.389 131.206C471.523 130.47 470.441 130.102 469.142 130.102C468.016 130.102 466.933 130.405 465.894 131.011C464.898 131.618 464.292 132.419 464.076 133.415C464.076 133.415 464.076 133.436 464.076 133.48C464.032 133.653 464.011 133.804 464.011 133.934C464.054 134.064 464.249 134.129 464.595 134.129L473.364 134.194Z" fill="white"/>
<path d="M61.3642 11.5197C45.4678 11.5197 33.1474 35.0404 30.9382 67.7168C33.7897 70.7481 37.1395 73.7537 40.8541 76.6874C40.8952 73.2759 41.0956 70.0236 41.373 66.8331C44.5337 64.6092 47.7743 62.5013 51.0886 60.5136C64.7551 52.622 78.8224 47.4225 90.6855 45.8812C92.842 45.5954 95.0146 45.4478 97.1899 45.4393C103.854 45.4393 108.57 47.0423 110.312 50.0531C111.879 52.7812 111.175 57.1175 108.55 62.1937C111.237 64.6855 113.79 67.2133 116.051 69.7616C121.836 60.1899 123.018 51.4916 119.211 44.9153C114.674 37.0699 104.095 33.7765 89.3857 35.6827C76.2021 37.3884 60.7887 43.0503 45.9559 51.6201C45.0106 52.1596 44.132 52.7607 43.2072 53.3464C46.8961 34.3314 54.4025 21.7952 61.3642 21.7952C64.6164 21.7952 67.9919 24.5696 71.0386 29.3837C74.4262 28.3127 77.862 27.4006 81.3347 26.6504C76.0171 17.1198 69.1068 11.5197 61.3642 11.5197ZM26.5248 35.2203C15.381 35.0199 7.31464 38.3543 3.52295 44.9153C-0.607831 52.0568 1.11333 61.6542 8.21889 72.1918C8.86111 73.1731 9.56499 74.2161 10.4487 75.3618C18.515 85.9148 31.118 96.4319 45.9508 105.007C46.8961 105.546 47.8775 106.029 48.8434 106.569C42.9606 108.598 37.2628 110.062 32.0223 110.746C22.0036 112.046 14.6822 110.484 12.437 106.569C10.8494 103.841 11.5533 99.5043 14.1839 94.4281C11.5654 92.024 9.05402 89.5057 6.657 86.8807C0.892404 96.437 -0.289288 105.12 3.52295 111.707C7.21702 118.108 14.9237 121.479 25.6 121.479C28.0302 121.479 30.6351 121.299 33.3478 120.939C34.9148 120.734 36.4819 120.477 38.0848 120.158L39.21 119.917C39.2871 119.917 39.3487 119.896 39.4258 119.876C42.1591 119.295 45.1699 118.488 48.6224 117.409L52.0134 116.361C57.0484 114.635 62.2068 112.487 67.3651 109.98C68.4903 106.245 69.4921 101.893 70.2525 96.8789C67.2829 98.5384 64.2927 100.044 61.3231 101.451C57.8338 99.8234 54.419 98.0405 51.0886 96.1082C37.4015 88.2063 25.862 78.6346 18.6178 69.1348C12.473 61.089 10.1661 53.9681 12.437 50.0531C13.9783 47.366 18.0732 45.8401 23.7145 45.5575C24.516 41.9251 25.4408 38.4725 26.5248 35.2203ZM85.7275 57.2357C81.6738 58.181 77.3786 59.5682 72.9858 61.3099C75.8938 63.0362 78.6631 64.8859 81.3553 66.7303C81.6738 70.4655 81.9153 74.2777 81.9153 78.3109C81.9153 108.614 72.3847 131.734 63.2138 134.523C62.587 134.729 61.9447 134.827 61.3642 134.827C58.1119 134.827 54.7364 132.078 51.6897 127.223C48.196 128.322 44.7486 129.267 41.3936 129.971C46.7112 139.502 53.6215 145.102 61.3642 145.102C62.3917 145.102 63.3679 144.999 64.3338 144.799C80.4099 141.752 92.1909 114.214 92.1909 78.3109C92.1909 77.2063 92.1087 76.1427 92.0881 75.0381C96.7892 79.1124 100.925 83.31 104.131 87.4818C110.255 95.5328 112.557 102.654 110.312 106.569C108.729 109.276 104.696 110.843 99.0139 111.126C98.2616 114.604 97.3305 118.04 96.224 121.422C96.5066 121.422 96.8457 121.479 97.1283 121.479C107.805 121.479 115.511 118.108 119.205 111.707C123.742 103.861 121.291 93.0409 112.28 81.26C105.899 72.9111 96.6453 64.6033 85.7275 57.2357ZM61.3642 68.0353C58.6389 68.0353 56.0253 69.1179 54.0982 71.045C52.1712 72.972 51.0886 75.5856 51.0886 78.3109C51.0886 81.0361 52.1712 83.6498 54.0982 85.5768C56.0253 87.5039 58.6389 88.5865 61.3642 88.5865C64.0894 88.5865 66.703 87.5039 68.6301 85.5768C70.5571 83.6498 71.6397 81.0361 71.6397 78.3109C71.6397 75.5856 70.5571 72.972 68.6301 71.045C66.703 69.1179 64.0894 68.0353 61.3642 68.0353Z" fill="black"/>
<path d="M61.3642 11.5197C45.4678 11.5197 33.1474 35.0404 30.9382 67.7168C33.7897 70.7481 37.1395 73.7537 40.8541 76.6874C40.8952 73.2759 41.0956 70.0236 41.373 66.8331C44.5337 64.6092 47.7743 62.5013 51.0886 60.5136C64.7551 52.622 78.8224 47.4225 90.6855 45.8812C92.842 45.5954 95.0146 45.4478 97.1899 45.4393C103.854 45.4393 108.57 47.0423 110.312 50.0531C111.879 52.7812 111.175 57.1175 108.55 62.1937C111.237 64.6855 113.79 67.2133 116.051 69.7616C121.836 60.1899 123.018 51.4916 119.211 44.9153C114.674 37.0699 104.095 33.7765 89.3857 35.6827C76.2021 37.3884 60.7887 43.0503 45.9559 51.6201C45.0106 52.1596 44.132 52.7607 43.2072 53.3464C46.8961 34.3314 54.4025 21.7952 61.3642 21.7952C64.6164 21.7952 67.9919 24.5696 71.0386 29.3837C74.4262 28.3127 77.862 27.4006 81.3347 26.6504C76.0171 17.1198 69.1068 11.5197 61.3642 11.5197ZM26.5248 35.2203C15.381 35.0199 7.31464 38.3543 3.52295 44.9153C-0.607831 52.0568 1.11333 61.6542 8.21889 72.1918C8.86111 73.1731 9.56499 74.2161 10.4487 75.3618C18.515 85.9148 31.118 96.4319 45.9508 105.007C46.8961 105.546 47.8775 106.029 48.8434 106.569C42.9606 108.598 37.2628 110.062 32.0223 110.746C22.0036 112.046 14.6822 110.484 12.437 106.569C10.8494 103.841 11.5533 99.5043 14.1839 94.4281C11.5654 92.024 9.05402 89.5057 6.657 86.8807C0.892404 96.437 -0.289288 105.12 3.52295 111.707C7.21702 118.108 14.9237 121.479 25.6 121.479C28.0302 121.479 30.6351 121.299 33.3478 120.939C34.9148 120.734 36.4819 120.477 38.0848 120.158L39.21 119.917C39.2871 119.917 39.3487 119.896 39.4258 119.876C42.1591 119.295 45.1699 118.488 48.6224 117.409L52.0134 116.361C57.0484 114.635 62.2068 112.487 67.3651 109.98C68.4903 106.245 69.4921 101.893 70.2525 96.8789C67.2829 98.5384 64.2927 100.044 61.3231 101.451C57.8338 99.8234 54.419 98.0405 51.0886 96.1082C37.4015 88.2063 25.862 78.6346 18.6178 69.1348C12.473 61.089 10.1661 53.9681 12.437 50.0531C13.9783 47.366 18.0732 45.8401 23.7145 45.5575C24.516 41.9251 25.4408 38.4725 26.5248 35.2203ZM85.7275 57.2357C81.6738 58.181 77.3786 59.5682 72.9858 61.3099C75.8938 63.0362 78.6631 64.8859 81.3553 66.7303C81.6738 70.4655 81.9153 74.2777 81.9153 78.3109C81.9153 108.614 72.3847 131.734 63.2138 134.523C62.587 134.729 61.9447 134.827 61.3642 134.827C58.1119 134.827 54.7364 132.078 51.6897 127.223C48.196 128.322 44.7486 129.267 41.3936 129.971C46.7112 139.502 53.6215 145.102 61.3642 145.102C62.3917 145.102 63.3679 144.999 64.3338 144.799C80.4099 141.752 92.1909 114.214 92.1909 78.3109C92.1909 77.2063 92.1087 76.1427 92.0881 75.0381C96.7892 79.1124 100.925 83.31 104.131 87.4818C110.255 95.5328 112.557 102.654 110.312 106.569C108.729 109.276 104.696 110.843 99.0139 111.126C98.2616 114.604 97.3305 118.04 96.224 121.422C96.5066 121.422 96.8457 121.479 97.1283 121.479C107.805 121.479 115.511 118.108 119.205 111.707C123.742 103.861 121.291 93.0409 112.28 81.26C105.899 72.9111 96.6453 64.6033 85.7275 57.2357ZM61.3642 68.0353C58.6389 68.0353 56.0253 69.1179 54.0982 71.045C52.1712 72.972 51.0886 75.5856 51.0886 78.3109C51.0886 81.0361 52.1712 83.6498 54.0982 85.5768C56.0253 87.5039 58.6389 88.5865 61.3642 88.5865C64.0894 88.5865 66.703 87.5039 68.6301 85.5768C70.5571 83.6498 71.6397 81.0361 71.6397 78.3109C71.6397 75.5856 70.5571 72.972 68.6301 71.045C66.703 69.1179 64.0894 68.0353 61.3642 68.0353Z" fill="url(#paint3_linear_89_32)"/>
<defs>
<linearGradient id="paint0_linear_89_32" x1="138.861" y1="45.8353" x2="231.925" y2="194.968" gradientUnits="userSpaceOnUse">
<stop stop-color="#191719"/>
<stop offset="1" stop-color="#383738"/>
</linearGradient>
<linearGradient id="paint1_linear_89_32" x1="396.427" y1="41.3558" x2="410.219" y2="109.864" gradientUnits="userSpaceOnUse">
<stop stop-color="#8F0AB1"/>
<stop offset="1" stop-color="#ED8C32"/>
</linearGradient>
<linearGradient id="paint2_linear_89_32" x1="138.861" y1="90.4307" x2="335.003" y2="312.421" gradientUnits="userSpaceOnUse">
<stop stop-color="#191719"/>
<stop offset="1" stop-color="#383738"/>
</linearGradient>
<linearGradient id="paint3_linear_89_32" x1="1.31506" y1="11.5197" x2="57.1031" y2="168.895" gradientUnits="userSpaceOnUse">
<stop stop-color="#8F0AB1"/>
<stop offset="1" stop-color="#ED8C32"/>
</linearGradient>
</defs>
</svg>
