<svg width="149" height="69" viewBox="0 0 149 69" fill="none" xmlns="http://www.w3.org/2000/svg">
<path d="M122.697 9.98776C123.843 9.98776 124.851 10.1063 125.721 10.3435C126.591 10.5807 127.302 10.8376 127.856 11.1143L126.788 15.1464C126.235 14.8696 125.662 14.672 125.069 14.5534C124.476 14.3953 123.843 14.3162 123.171 14.3162C122.262 14.3162 121.511 14.4743 120.918 14.7906C120.325 15.1068 119.871 15.5416 119.554 16.0951C119.238 16.6485 119.021 17.3205 118.902 18.1111C118.784 18.8621 118.724 19.6725 118.724 20.5421V24.8706H126.729V29.2583H118.724V56H113.625V20.5421C113.625 17.1821 114.376 14.5929 115.878 12.7746C117.38 10.9167 119.653 9.98776 122.697 9.98776ZM136.255 56H131.156V24.8706H136.255V56Z" fill="url(#paint0_linear_1_78)"/>
<g opacity="0.3">
<path d="M136.236 20.1178C138.705 17.6483 139.706 14.6458 138.471 13.4113C137.237 12.1763 134.234 13.1773 131.765 15.6463C129.295 18.1163 128.295 21.1188 129.529 22.3533C130.764 23.5883 133.767 22.5868 136.236 20.1178Z" fill="black"/>
<path d="M136.236 20.1178C138.705 17.6483 139.706 14.6458 138.471 13.4113C137.237 12.1763 134.234 13.1773 131.765 15.6463C129.295 18.1163 128.295 21.1188 129.529 22.3533C130.764 23.5883 133.767 22.5868 136.236 20.1178Z" fill="url(#paint1_linear_1_78)"/>
</g>
<g opacity="0.3">
<path d="M131.765 20.1179C129.295 17.6489 128.295 14.6458 129.529 13.4113C130.764 12.1763 133.766 13.1773 136.236 15.6463C138.705 18.1164 139.706 21.1189 138.471 22.3534C137.236 23.5884 134.234 22.5869 131.765 20.1179Z" fill="black"/>
<path d="M131.765 20.1179C129.295 17.6489 128.295 14.6458 129.529 13.4113C130.764 12.1763 133.766 13.1773 136.236 15.6463C138.705 18.1164 139.706 21.1189 138.471 22.3534C137.236 23.5884 134.234 22.5869 131.765 20.1179Z" fill="url(#paint2_linear_1_78)"/>
</g>
<path d="M135.25 17.8823C135.25 18.2138 135.118 18.5318 134.884 18.7662C134.649 19.0006 134.332 19.1323 134 19.1323C133.668 19.1323 133.351 19.0006 133.116 18.7662C132.882 18.5318 132.75 18.2138 132.75 17.8823C132.75 17.5508 132.882 17.2329 133.116 16.9984C133.351 16.764 133.668 16.6323 134 16.6323C134.332 16.6323 134.649 16.764 134.884 16.9984C135.118 17.2329 135.25 17.5508 135.25 17.8823Z" fill="black"/>
<path d="M135.25 17.8823C135.25 18.2138 135.118 18.5318 134.884 18.7662C134.649 19.0006 134.332 19.1323 134 19.1323C133.668 19.1323 133.351 19.0006 133.116 18.7662C132.882 18.5318 132.75 18.2138 132.75 17.8823C132.75 17.5508 132.882 17.2329 133.116 16.9984C133.351 16.764 133.668 16.6323 134 16.6323C134.332 16.6323 134.649 16.764 134.884 16.9984C135.118 17.2329 135.25 17.5508 135.25 17.8823Z" fill="url(#paint3_linear_1_78)"/>
<path d="M30.68 19.6V25.944H19.552V56H13.208V25.944H2.08V19.6H30.68ZM42.833 56.676C40.441 56.676 38.257 56.0607 36.281 54.83C34.3223 53.5993 32.7536 51.944 31.575 49.864C30.4136 47.784 29.833 45.4873 29.833 42.974C29.833 41.0847 30.171 39.3167 30.847 37.67C31.523 36.006 32.4503 34.55 33.629 33.302C34.825 32.0367 36.2116 31.0487 37.789 30.338C39.3663 29.6273 41.0476 29.272 42.833 29.272C44.861 29.272 46.7156 29.7053 48.397 30.572C50.0956 31.4213 51.5343 32.5913 52.713 34.082C53.8916 35.5727 54.7496 37.2713 55.287 39.178C55.8243 41.0847 55.9456 43.078 55.651 45.158H36.645C36.8876 46.1287 37.2863 47.004 37.841 47.784C38.3956 48.5467 39.0976 49.162 39.947 49.63C40.7963 50.0807 41.7583 50.3147 42.833 50.332C43.9423 50.3493 44.9476 50.0893 45.849 49.552C46.7676 48.9973 47.5303 48.252 48.137 47.316L54.611 48.824C53.5536 51.1293 51.9763 53.0187 49.879 54.492C47.7816 55.948 45.433 56.676 42.833 56.676ZM36.437 40.4H49.229C49.0383 39.36 48.631 38.424 48.007 37.592C47.4003 36.7427 46.6463 36.0667 45.745 35.564C44.8436 35.0613 43.873 34.81 42.833 34.81C41.793 34.81 40.831 35.0613 39.947 35.564C39.063 36.0493 38.309 36.7167 37.685 37.566C37.0783 38.398 36.6623 39.3427 36.437 40.4ZM75.5828 48.174L81.3028 51.268C80.1068 52.8973 78.6075 54.206 76.8048 55.194C75.0021 56.182 73.0348 56.676 70.9028 56.676C68.5108 56.676 66.3268 56.0607 64.3508 54.83C62.3921 53.5993 60.8235 51.9527 59.6448 49.89C58.4835 47.81 57.9028 45.5133 57.9028 43C57.9028 41.0933 58.2408 39.3167 58.9168 37.67C59.5928 36.006 60.5201 34.55 61.6988 33.302C62.8948 32.0367 64.2815 31.0487 65.8588 30.338C67.4361 29.6273 69.1175 29.272 70.9028 29.272C73.0348 29.272 75.0021 29.766 76.8048 30.754C78.6075 31.742 80.1068 33.068 81.3028 34.732L75.5828 37.8C74.9761 37.1067 74.2568 36.5693 73.4248 36.188C72.6101 35.8067 71.7695 35.616 70.9028 35.616C69.6548 35.616 68.5281 35.9627 67.5228 36.656C66.5175 37.332 65.7201 38.2333 65.1308 39.36C64.5415 40.4693 64.2468 41.6827 64.2468 43C64.2468 44.3 64.5415 45.5133 65.1308 46.64C65.7201 47.7493 66.5175 48.642 67.5228 49.318C68.5281 49.994 69.6548 50.332 70.9028 50.332C71.8041 50.332 72.6621 50.1413 73.4768 49.76C74.2915 49.3613 74.9935 48.8327 75.5828 48.174ZM108.454 39.568V56H102.11V41.232C102.11 40.2093 101.859 39.282 101.356 38.45C100.853 37.6007 100.177 36.9333 99.3281 36.448C98.4961 35.9453 97.5688 35.694 96.5461 35.694C95.5235 35.694 94.5875 35.9453 93.7381 36.448C92.9061 36.9333 92.2388 37.6007 91.7361 38.45C91.2508 39.282 91.0081 40.2093 91.0081 41.232V56H84.6641L84.6381 17H90.9821L91.0081 32.314C91.8921 31.378 92.9495 30.6413 94.1801 30.104C95.4108 29.5493 96.7368 29.272 98.1581 29.272C100.047 29.272 101.772 29.74 103.332 30.676C104.892 31.5947 106.131 32.834 107.05 34.394C107.986 35.9367 108.454 37.6613 108.454 39.568Z" fill="url(#paint4_linear_1_78)"/>
<defs>
<linearGradient id="paint0_linear_1_78" x1="109" y1="0" x2="143.351" y2="67.355" gradientUnits="userSpaceOnUse">
<stop stop-color="#8F0AB1"/>
<stop offset="1" stop-color="#ED8C32"/>
</linearGradient>
<linearGradient id="paint1_linear_1_78" x1="129" y1="12.8823" x2="132.838" y2="24.9207" gradientUnits="userSpaceOnUse">
<stop stop-color="#8F0AB1"/>
<stop offset="1" stop-color="#ED8C32"/>
</linearGradient>
<linearGradient id="paint2_linear_1_78" x1="129" y1="12.8823" x2="132.838" y2="24.9207" gradientUnits="userSpaceOnUse">
<stop stop-color="#8F0AB1"/>
<stop offset="1" stop-color="#ED8C32"/>
</linearGradient>
<linearGradient id="paint3_linear_1_78" x1="132.75" y1="16.6323" x2="133.709" y2="19.6419" gradientUnits="userSpaceOnUse">
<stop stop-color="#8F0AB1"/>
<stop offset="1" stop-color="#ED8C32"/>
</linearGradient>
<linearGradient id="paint4_linear_1_78" x1="0" y1="7" x2="111" y2="69" gradientUnits="userSpaceOnUse">
<stop stop-color="white"/>
<stop offset="1" stop-color="white"/>
</linearGradient>
</defs>
</svg>
