<svg width="48" height="48" viewBox="0 0 48 48" fill="none" xmlns="http://www.w3.org/2000/svg">
<path d="M48 4.79999V43.2H0.767993C0.00479298 43.2 -0.230407 42.6984 0.249593 42.084L10.9752 28.2888C11.0827 28.1446 11.2198 28.0251 11.3773 27.9382C11.5347 27.8513 11.709 27.7991 11.8882 27.785C12.0675 27.7709 12.2478 27.7953 12.4169 27.8565C12.586 27.9177 12.7401 28.0144 12.8688 28.14L16.2744 31.3416C16.3972 31.4663 16.5471 31.5609 16.7126 31.618C16.878 31.6752 17.0544 31.6933 17.2279 31.671C17.4015 31.6487 17.5676 31.5866 17.7132 31.4894C17.8588 31.3923 17.9799 31.2629 18.0672 31.1112L25.38 19.7352C25.4666 19.5844 25.5871 19.4558 25.7321 19.3597C25.8771 19.2637 26.0424 19.2027 26.2151 19.1817C26.3877 19.1608 26.5629 19.1804 26.7266 19.2389C26.8904 19.2975 27.0382 19.3935 27.1584 19.5192L32.3688 24.5496C32.9256 25.0896 33.7104 24.9816 34.1064 24.3096L46.4256 5.62559C46.824 4.94879 47.4 4.79999 48 4.79999Z" fill="black"/>
<path d="M48 4.79999V43.2H0.767993C0.00479298 43.2 -0.230407 42.6984 0.249593 42.084L10.9752 28.2888C11.0827 28.1446 11.2198 28.0251 11.3773 27.9382C11.5347 27.8513 11.709 27.7991 11.8882 27.785C12.0675 27.7709 12.2478 27.7953 12.4169 27.8565C12.586 27.9177 12.7401 28.0144 12.8688 28.14L16.2744 31.3416C16.3972 31.4663 16.5471 31.5609 16.7126 31.618C16.878 31.6752 17.0544 31.6933 17.2279 31.671C17.4015 31.6487 17.5676 31.5866 17.7132 31.4894C17.8588 31.3923 17.9799 31.2629 18.0672 31.1112L25.38 19.7352C25.4666 19.5844 25.5871 19.4558 25.7321 19.3597C25.8771 19.2637 26.0424 19.2027 26.2151 19.1817C26.3877 19.1608 26.5629 19.1804 26.7266 19.2389C26.8904 19.2975 27.0382 19.3935 27.1584 19.5192L32.3688 24.5496C32.9256 25.0896 33.7104 24.9816 34.1064 24.3096L46.4256 5.62559C46.824 4.94879 47.4 4.79999 48 4.79999Z" fill="url(#paint0_linear_19_59)"/>
<defs>
<linearGradient id="paint0_linear_19_59" x1="0.000396729" y1="4.79999" x2="12.1934" y2="52.6152" gradientUnits="userSpaceOnUse">
<stop stop-color="#8F0AB1"/>
<stop offset="1" stop-color="#ED8C32"/>
</linearGradient>
</defs>
</svg>
