<svg width="48" height="48" viewBox="0 0 48 48" fill="none" xmlns="http://www.w3.org/2000/svg">
<path d="M45.6 26.4C45.4421 29.2748 44.5968 32.0698 43.1352 34.5504C41.6736 37.031 39.6382 39.1248 37.2 40.656L24 48L10.8 40.656C8.36176 39.1248 6.32642 37.031 4.86479 34.5504C3.40317 32.0698 2.55792 29.2748 2.39999 26.4V7.2C10.512 7.2 18 4.512 24 0C30 4.536 37.488 7.2 45.6 7.2V26.4ZM24 28.992L31.008 33.888L28.536 25.704L35.352 20.544L26.808 20.352L24 12.288L21.192 20.352L12.648 20.544L19.44 25.68L16.968 33.84L24 29.016V28.992Z" fill="black"/>
<path d="M45.6 26.4C45.4421 29.2748 44.5968 32.0698 43.1352 34.5504C41.6736 37.031 39.6382 39.1248 37.2 40.656L24 48L10.8 40.656C8.36176 39.1248 6.32642 37.031 4.86479 34.5504C3.40317 32.0698 2.55792 29.2748 2.39999 26.4V7.2C10.512 7.2 18 4.512 24 0C30 4.536 37.488 7.2 45.6 7.2V26.4ZM24 28.992L31.008 33.888L28.536 25.704L35.352 20.544L26.808 20.352L24 12.288L21.192 20.352L12.648 20.544L19.44 25.68L16.968 33.84L24 29.016V28.992Z" fill="url(#paint0_linear_19_63)"/>
<defs>
<linearGradient id="paint0_linear_19_63" x1="2.39999" y1="0" x2="22.432" y2="56.5609" gradientUnits="userSpaceOnUse">
<stop stop-color="#8F0AB1"/>
<stop offset="1" stop-color="#ED8C32"/>
</linearGradient>
</defs>
</svg>
