<svg width="48" height="48" viewBox="0 0 48 48" fill="none" xmlns="http://www.w3.org/2000/svg">
<g clip-path="url(#clip0_19_41)">
<path fill-rule="evenodd" clip-rule="evenodd" d="M5.14286 0H21.8571V3.97029C20.8086 3.78331 19.7318 3.8285 18.7027 4.10267C17.6735 4.37684 16.7169 4.87333 15.9004 5.55716C15.0838 6.24099 14.4271 7.09553 13.9765 8.06059C13.5259 9.02566 13.2924 10.0778 13.2924 11.1429C13.2924 12.2079 13.5259 13.2601 13.9765 14.2251C14.4271 15.1902 15.0838 16.0447 15.9004 16.7286C16.7169 17.4124 17.6735 17.9089 18.7027 18.183C19.7318 18.4572 20.8086 18.5024 21.8571 18.3154V21.8571H14.976C14.5621 21.8568 14.1569 21.9764 13.8095 22.2015C13.4621 22.4265 13.1873 22.7473 13.0183 23.1252C12.8493 23.503 12.7934 23.9217 12.8573 24.3307C12.9212 24.7397 13.1021 25.1214 13.3783 25.4297C13.764 25.8615 14.0166 26.3956 14.1055 26.9678C14.1945 27.5399 14.1159 28.1255 13.8794 28.654C13.6429 29.1825 13.2585 29.6312 12.7726 29.9461C12.2868 30.261 11.7201 30.4285 11.1411 30.4285C10.5622 30.4285 9.99553 30.261 9.50965 29.9461C9.02376 29.6312 8.63937 29.1825 8.40286 28.654C8.16635 28.1255 8.08781 27.5399 8.17674 26.9678C8.26566 26.3956 8.51824 25.8615 8.904 25.4297C9.17998 25.1216 9.36088 24.7402 9.42488 24.3316C9.48888 23.9229 9.43325 23.5045 9.26468 23.1267C9.09612 22.749 8.82183 22.4281 8.47493 22.2029C8.12804 21.9776 7.72335 21.8575 7.30971 21.8571H0V5.14286C0 3.77889 0.541835 2.47078 1.50631 1.50631C2.47078 0.541835 3.77889 0 5.14286 0ZM0 26.1429V42.8571C0 44.2211 0.541835 45.5292 1.50631 46.4937C2.47078 47.4582 3.77889 48 5.14286 48H21.8571V40.6903C21.8568 40.2764 21.9764 39.8712 22.2015 39.5238C22.4265 39.1764 22.7473 38.9016 23.1252 38.7326C23.503 38.5636 23.9217 38.5077 24.3307 38.5716C24.7397 38.6354 25.1214 38.8164 25.4297 39.0926C25.8615 39.4783 26.3956 39.7309 26.9678 39.8198C27.5399 39.9088 28.1255 39.8302 28.654 39.5937C29.1825 39.3572 29.6312 38.9728 29.9461 38.4869C30.261 38.001 30.4285 37.4344 30.4285 36.8554C30.4285 36.2764 30.261 35.7098 29.9461 35.2239C29.6312 34.738 29.1825 34.3537 28.654 34.1171C28.1255 33.8806 27.5399 33.8021 26.9678 33.891C26.3956 33.9799 25.8615 34.2325 25.4297 34.6183C25.1216 34.8943 24.7402 35.0752 24.3316 35.1392C23.9229 35.2032 23.5045 35.1475 23.1267 34.979C22.749 34.8104 22.4281 34.5361 22.2029 34.1892C21.9776 33.8423 21.8575 33.4376 21.8571 33.024V26.1429H18.3154C18.5024 27.1914 18.4572 28.2682 18.183 29.2973C17.9089 30.3265 17.4124 31.2831 16.7286 32.0996C16.0447 32.9162 15.1902 33.5729 14.2251 34.0235C13.2601 34.4741 12.2079 34.7076 11.1429 34.7076C10.0778 34.7076 9.02566 34.4741 8.06059 34.0235C7.09553 33.5729 6.24099 32.9162 5.55716 32.0996C4.87333 31.2831 4.37684 30.3265 4.10267 29.2973C3.8285 28.2682 3.78331 27.1914 3.97029 26.1429H0ZM26.1429 26.1429V29.6846C27.1914 29.4976 28.2682 29.5428 29.2973 29.817C30.3265 30.0911 31.2831 30.5876 32.0996 31.2714C32.9162 31.9553 33.5729 32.8098 34.0235 33.7749C34.4741 34.7399 34.7076 35.7921 34.7076 36.8571C34.7076 37.9222 34.4741 38.9743 34.0235 39.9394C33.5729 40.9045 32.9162 41.759 32.0996 42.4428C31.2831 43.1267 30.3265 43.6232 29.2973 43.8973C28.2682 44.1715 27.1914 44.2167 26.1429 44.0297V48H42.8571C44.2211 48 45.5292 47.4582 46.4937 46.4937C47.4582 45.5292 48 44.2211 48 42.8571V26.1429H40.6903C40.2764 26.1432 39.8712 26.0236 39.5238 25.7985C39.1764 25.5735 38.9016 25.2527 38.7326 24.8748C38.5636 24.497 38.5077 24.0783 38.5716 23.6693C38.6354 23.2603 38.8164 22.8786 39.0926 22.5703C39.4783 22.1385 39.7309 21.6044 39.8198 21.0322C39.9088 20.4601 39.8302 19.8745 39.5937 19.346C39.3572 18.8175 38.9728 18.3688 38.4869 18.0539C38.001 17.739 37.4344 17.5715 36.8554 17.5715C36.2764 17.5715 35.7098 17.739 35.2239 18.0539C34.738 18.3688 34.3537 18.8175 34.1171 19.346C33.8806 19.8745 33.8021 20.4601 33.891 21.0322C33.9799 21.6044 34.2325 22.1385 34.6183 22.5703C34.8943 22.8784 35.0752 23.2598 35.1392 23.6684C35.2032 24.0771 35.1475 24.4955 34.979 24.8733C34.8104 25.251 34.5361 25.5719 34.1892 25.7971C33.8423 26.0224 33.4376 26.1425 33.024 26.1429H26.1429ZM48 21.8571V5.14286C48 3.77889 47.4582 2.47078 46.4937 1.50631C45.5292 0.541835 44.2211 0 42.8571 0L26.1429 0V7.30971C26.1432 7.72364 26.0236 8.12879 25.7985 8.4762C25.5735 8.82362 25.2527 9.09843 24.8748 9.26741C24.497 9.4364 24.0783 9.49233 23.6693 9.42844C23.2603 9.36456 22.8786 9.1836 22.5703 8.90743C22.1385 8.52167 21.6044 8.26909 21.0322 8.18016C20.4601 8.09124 19.8745 8.16977 19.346 8.40629C18.8175 8.6428 18.3688 9.02719 18.0539 9.51308C17.739 9.99896 17.5715 10.5656 17.5715 11.1446C17.5715 11.7236 17.739 12.2902 18.0539 12.7761C18.3688 13.262 18.8175 13.6463 19.346 13.8829C19.8745 14.1194 20.4601 14.1979 21.0322 14.109C21.6044 14.0201 22.1385 13.7675 22.5703 13.3817C22.8784 13.1057 23.2598 12.9248 23.6684 12.8608C24.0771 12.7968 24.4955 12.8525 24.8733 13.021C25.251 13.1896 25.5719 13.4639 25.7971 13.8108C26.0224 14.1577 26.1425 14.5624 26.1429 14.976V21.8571H29.6846C29.4976 20.8086 29.5428 19.7318 29.817 18.7027C30.0911 17.6735 30.5876 16.7169 31.2714 15.9004C31.9553 15.0838 32.8098 14.4271 33.7749 13.9765C34.7399 13.5259 35.7921 13.2924 36.8571 13.2924C37.9222 13.2924 38.9743 13.5259 39.9394 13.9765C40.9045 14.4271 41.759 15.0838 42.4428 15.9004C43.1267 16.7169 43.6232 17.6735 43.8973 18.7027C44.1715 19.7318 44.2167 20.8086 44.0297 21.8571H48Z" fill="black"/>
<path fill-rule="evenodd" clip-rule="evenodd" d="M5.14286 0H21.8571V3.97029C20.8086 3.78331 19.7318 3.8285 18.7027 4.10267C17.6735 4.37684 16.7169 4.87333 15.9004 5.55716C15.0838 6.24099 14.4271 7.09553 13.9765 8.06059C13.5259 9.02566 13.2924 10.0778 13.2924 11.1429C13.2924 12.2079 13.5259 13.2601 13.9765 14.2251C14.4271 15.1902 15.0838 16.0447 15.9004 16.7286C16.7169 17.4124 17.6735 17.9089 18.7027 18.183C19.7318 18.4572 20.8086 18.5024 21.8571 18.3154V21.8571H14.976C14.5621 21.8568 14.1569 21.9764 13.8095 22.2015C13.4621 22.4265 13.1873 22.7473 13.0183 23.1252C12.8493 23.503 12.7934 23.9217 12.8573 24.3307C12.9212 24.7397 13.1021 25.1214 13.3783 25.4297C13.764 25.8615 14.0166 26.3956 14.1055 26.9678C14.1945 27.5399 14.1159 28.1255 13.8794 28.654C13.6429 29.1825 13.2585 29.6312 12.7726 29.9461C12.2868 30.261 11.7201 30.4285 11.1411 30.4285C10.5622 30.4285 9.99553 30.261 9.50965 29.9461C9.02376 29.6312 8.63937 29.1825 8.40286 28.654C8.16635 28.1255 8.08781 27.5399 8.17674 26.9678C8.26566 26.3956 8.51824 25.8615 8.904 25.4297C9.17998 25.1216 9.36088 24.7402 9.42488 24.3316C9.48888 23.9229 9.43325 23.5045 9.26468 23.1267C9.09612 22.749 8.82183 22.4281 8.47493 22.2029C8.12804 21.9776 7.72335 21.8575 7.30971 21.8571H0V5.14286C0 3.77889 0.541835 2.47078 1.50631 1.50631C2.47078 0.541835 3.77889 0 5.14286 0ZM0 26.1429V42.8571C0 44.2211 0.541835 45.5292 1.50631 46.4937C2.47078 47.4582 3.77889 48 5.14286 48H21.8571V40.6903C21.8568 40.2764 21.9764 39.8712 22.2015 39.5238C22.4265 39.1764 22.7473 38.9016 23.1252 38.7326C23.503 38.5636 23.9217 38.5077 24.3307 38.5716C24.7397 38.6354 25.1214 38.8164 25.4297 39.0926C25.8615 39.4783 26.3956 39.7309 26.9678 39.8198C27.5399 39.9088 28.1255 39.8302 28.654 39.5937C29.1825 39.3572 29.6312 38.9728 29.9461 38.4869C30.261 38.001 30.4285 37.4344 30.4285 36.8554C30.4285 36.2764 30.261 35.7098 29.9461 35.2239C29.6312 34.738 29.1825 34.3537 28.654 34.1171C28.1255 33.8806 27.5399 33.8021 26.9678 33.891C26.3956 33.9799 25.8615 34.2325 25.4297 34.6183C25.1216 34.8943 24.7402 35.0752 24.3316 35.1392C23.9229 35.2032 23.5045 35.1475 23.1267 34.979C22.749 34.8104 22.4281 34.5361 22.2029 34.1892C21.9776 33.8423 21.8575 33.4376 21.8571 33.024V26.1429H18.3154C18.5024 27.1914 18.4572 28.2682 18.183 29.2973C17.9089 30.3265 17.4124 31.2831 16.7286 32.0996C16.0447 32.9162 15.1902 33.5729 14.2251 34.0235C13.2601 34.4741 12.2079 34.7076 11.1429 34.7076C10.0778 34.7076 9.02566 34.4741 8.06059 34.0235C7.09553 33.5729 6.24099 32.9162 5.55716 32.0996C4.87333 31.2831 4.37684 30.3265 4.10267 29.2973C3.8285 28.2682 3.78331 27.1914 3.97029 26.1429H0ZM26.1429 26.1429V29.6846C27.1914 29.4976 28.2682 29.5428 29.2973 29.817C30.3265 30.0911 31.2831 30.5876 32.0996 31.2714C32.9162 31.9553 33.5729 32.8098 34.0235 33.7749C34.4741 34.7399 34.7076 35.7921 34.7076 36.8571C34.7076 37.9222 34.4741 38.9743 34.0235 39.9394C33.5729 40.9045 32.9162 41.759 32.0996 42.4428C31.2831 43.1267 30.3265 43.6232 29.2973 43.8973C28.2682 44.1715 27.1914 44.2167 26.1429 44.0297V48H42.8571C44.2211 48 45.5292 47.4582 46.4937 46.4937C47.4582 45.5292 48 44.2211 48 42.8571V26.1429H40.6903C40.2764 26.1432 39.8712 26.0236 39.5238 25.7985C39.1764 25.5735 38.9016 25.2527 38.7326 24.8748C38.5636 24.497 38.5077 24.0783 38.5716 23.6693C38.6354 23.2603 38.8164 22.8786 39.0926 22.5703C39.4783 22.1385 39.7309 21.6044 39.8198 21.0322C39.9088 20.4601 39.8302 19.8745 39.5937 19.346C39.3572 18.8175 38.9728 18.3688 38.4869 18.0539C38.001 17.739 37.4344 17.5715 36.8554 17.5715C36.2764 17.5715 35.7098 17.739 35.2239 18.0539C34.738 18.3688 34.3537 18.8175 34.1171 19.346C33.8806 19.8745 33.8021 20.4601 33.891 21.0322C33.9799 21.6044 34.2325 22.1385 34.6183 22.5703C34.8943 22.8784 35.0752 23.2598 35.1392 23.6684C35.2032 24.0771 35.1475 24.4955 34.979 24.8733C34.8104 25.251 34.5361 25.5719 34.1892 25.7971C33.8423 26.0224 33.4376 26.1425 33.024 26.1429H26.1429ZM48 21.8571V5.14286C48 3.77889 47.4582 2.47078 46.4937 1.50631C45.5292 0.541835 44.2211 0 42.8571 0L26.1429 0V7.30971C26.1432 7.72364 26.0236 8.12879 25.7985 8.4762C25.5735 8.82362 25.2527 9.09843 24.8748 9.26741C24.497 9.4364 24.0783 9.49233 23.6693 9.42844C23.2603 9.36456 22.8786 9.1836 22.5703 8.90743C22.1385 8.52167 21.6044 8.26909 21.0322 8.18016C20.4601 8.09124 19.8745 8.16977 19.346 8.40629C18.8175 8.6428 18.3688 9.02719 18.0539 9.51308C17.739 9.99896 17.5715 10.5656 17.5715 11.1446C17.5715 11.7236 17.739 12.2902 18.0539 12.7761C18.3688 13.262 18.8175 13.6463 19.346 13.8829C19.8745 14.1194 20.4601 14.1979 21.0322 14.109C21.6044 14.0201 22.1385 13.7675 22.5703 13.3817C22.8784 13.1057 23.2598 12.9248 23.6684 12.8608C24.0771 12.7968 24.4955 12.8525 24.8733 13.021C25.251 13.1896 25.5719 13.4639 25.7971 13.8108C26.0224 14.1577 26.1425 14.5624 26.1429 14.976V21.8571H29.6846C29.4976 20.8086 29.5428 19.7318 29.817 18.7027C30.0911 17.6735 30.5876 16.7169 31.2714 15.9004C31.9553 15.0838 32.8098 14.4271 33.7749 13.9765C34.7399 13.5259 35.7921 13.2924 36.8571 13.2924C37.9222 13.2924 38.9743 13.5259 39.9394 13.9765C40.9045 14.4271 41.759 15.0838 42.4428 15.9004C43.1267 16.7169 43.6232 17.6735 43.8973 18.7027C44.1715 19.7318 44.2167 20.8086 44.0297 21.8571H48Z" fill="url(#paint0_linear_19_41)"/>
</g>
<defs>
<linearGradient id="paint0_linear_19_41" x1="0" y1="0" x2="18.4188" y2="57.7846" gradientUnits="userSpaceOnUse">
<stop stop-color="#8F0AB1"/>
<stop offset="1" stop-color="#ED8C32"/>
</linearGradient>
<clipPath id="clip0_19_41">
<rect width="48" height="48" fill="white"/>
</clipPath>
</defs>
</svg>
