<svg width="48" height="48" viewBox="0 0 48 48" fill="none" xmlns="http://www.w3.org/2000/svg">
<path d="M15.8052 15.2833L22.0415 3.16703C22.223 2.81638 22.5022 2.52145 22.8478 2.31532C23.1933 2.10919 23.5916 2 23.9978 2C24.4041 2 24.8024 2.10919 25.1479 2.31532C25.4935 2.52145 25.7727 2.81638 25.9542 3.16703L32.1905 15.2833L46.1322 17.2378C46.5343 17.2916 46.9127 17.4534 47.2241 17.7047C47.5355 17.956 47.7674 18.2867 47.8933 18.659C48.0192 19.0314 48.034 19.4304 47.9361 19.8105C47.8382 20.1906 47.6315 20.5365 47.3396 20.8087L37.253 30.234L39.6342 43.5498C39.9391 45.2589 38.0668 46.5604 36.4657 45.7545L23.9978 39.4648L11.5276 45.7545C9.92892 46.5627 8.05658 45.2589 8.36144 43.5475L10.7427 30.2317L0.656058 20.8064C0.365572 20.534 0.160124 20.1885 0.063065 19.809C-0.033994 19.4296 -0.0187704 19.0315 0.107005 18.66C0.23278 18.2885 0.464063 17.9585 0.774563 17.7075C1.08506 17.4565 1.46233 17.2946 1.86347 17.2401L15.8052 15.2833Z" fill="url(#paint0_linear_19_47)"/>
<defs>
<linearGradient id="paint0_linear_19_47" x1="0" y1="2" x2="15.7083" y2="55.7611" gradientUnits="userSpaceOnUse">
<stop stop-color="#8F0AB1"/>
<stop offset="1" stop-color="#ED8C32"/>
</linearGradient>
</defs>
</svg>
