<svg width="36" height="36" viewBox="0 0 36 36" fill="none" xmlns="http://www.w3.org/2000/svg">
<path d="M2.5 8.5H33.5V27.5H2.5V8.5Z" fill="white"/>
<path d="M2.5 8.5H33.5V11H2.5V8.5ZM2.5 13H33.5V15H2.5V13ZM2.5 17H33.5V19H2.5V17Z" fill="#D22F27"/>
<path d="M2.5 8.5H18.5V19H2.5V8.5Z" fill="#1E50A0"/>
<path d="M2.5 21H33.5V23H2.5V21Z" fill="#D22F27"/>
<path d="M4.75 11.875C5.23325 11.875 5.625 11.4832 5.625 11C5.625 10.5168 5.23325 10.125 4.75 10.125C4.26675 10.125 3.875 10.5168 3.875 11C3.875 11.4832 4.26675 11.875 4.75 11.875Z" fill="white"/>
<path d="M8.75 11.875C9.23325 11.875 9.625 11.4832 9.625 11C9.625 10.5168 9.23325 10.125 8.75 10.125C8.26675 10.125 7.875 10.5168 7.875 11C7.875 11.4832 8.26675 11.875 8.75 11.875Z" fill="white"/>
<path d="M12.75 11.875C13.2332 11.875 13.625 11.4832 13.625 11C13.625 10.5168 13.2332 10.125 12.75 10.125C12.2668 10.125 11.875 10.5168 11.875 11C11.875 11.4832 12.2668 11.875 12.75 11.875Z" fill="white"/>
<path d="M16.75 11.875C17.2332 11.875 17.625 11.4832 17.625 11C17.625 10.5168 17.2332 10.125 16.75 10.125C16.2668 10.125 15.875 10.5168 15.875 11C15.875 11.4832 16.2668 11.875 16.75 11.875Z" fill="white"/>
<path d="M14.75 13.875C15.2332 13.875 15.625 13.4832 15.625 13C15.625 12.5168 15.2332 12.125 14.75 12.125C14.2668 12.125 13.875 12.5168 13.875 13C13.875 13.4832 14.2668 13.875 14.75 13.875Z" fill="white"/>
<path d="M10.75 13.875C11.2332 13.875 11.625 13.4832 11.625 13C11.625 12.5168 11.2332 12.125 10.75 12.125C10.2668 12.125 9.875 12.5168 9.875 13C9.875 13.4832 10.2668 13.875 10.75 13.875Z" fill="white"/>
<path d="M6.75 13.875C7.23325 13.875 7.625 13.4832 7.625 13C7.625 12.5168 7.23325 12.125 6.75 12.125C6.26675 12.125 5.875 12.5168 5.875 13C5.875 13.4832 6.26675 13.875 6.75 13.875Z" fill="white"/>
<path d="M4.75 15.875C5.23325 15.875 5.625 15.4832 5.625 15C5.625 14.5168 5.23325 14.125 4.75 14.125C4.26675 14.125 3.875 14.5168 3.875 15C3.875 15.4832 4.26675 15.875 4.75 15.875Z" fill="white"/>
<path d="M8.75 15.875C9.23325 15.875 9.625 15.4832 9.625 15C9.625 14.5168 9.23325 14.125 8.75 14.125C8.26675 14.125 7.875 14.5168 7.875 15C7.875 15.4832 8.26675 15.875 8.75 15.875Z" fill="white"/>
<path d="M12.75 15.875C13.2332 15.875 13.625 15.4832 13.625 15C13.625 14.5168 13.2332 14.125 12.75 14.125C12.2668 14.125 11.875 14.5168 11.875 15C11.875 15.4832 12.2668 15.875 12.75 15.875Z" fill="white"/>
<path d="M16.75 15.875C17.2332 15.875 17.625 15.4832 17.625 15C17.625 14.5168 17.2332 14.125 16.75 14.125C16.2668 14.125 15.875 14.5168 15.875 15C15.875 15.4832 16.2668 15.875 16.75 15.875Z" fill="white"/>
<path d="M14.75 17.875C15.2332 17.875 15.625 17.4832 15.625 17C15.625 16.5168 15.2332 16.125 14.75 16.125C14.2668 16.125 13.875 16.5168 13.875 17C13.875 17.4832 14.2668 17.875 14.75 17.875Z" fill="white"/>
<path d="M10.75 17.875C11.2332 17.875 11.625 17.4832 11.625 17C11.625 16.5168 11.2332 16.125 10.75 16.125C10.2668 16.125 9.875 16.5168 9.875 17C9.875 17.4832 10.2668 17.875 10.75 17.875Z" fill="white"/>
<path d="M6.75 17.875C7.23325 17.875 7.625 17.4832 7.625 17C7.625 16.5168 7.23325 16.125 6.75 16.125C6.26675 16.125 5.875 16.5168 5.875 17C5.875 17.4832 6.26675 17.875 6.75 17.875Z" fill="white"/>
<path d="M2.5 25H33.5V27.5H2.5V25Z" fill="#D22F27"/>
<path d="M2.5 8.5H33.5V27.5H2.5V8.5Z" stroke="black" stroke-linecap="round" stroke-linejoin="round"/>
</svg>
