<svg width="45" height="48" viewBox="0 0 45 48" fill="none" xmlns="http://www.w3.org/2000/svg">
<path d="M34.2503 45.4329L2.30875 4.36622C2.14039 4.14942 2.03626 3.88973 2.00818 3.61668C1.98011 3.34363 2.02922 3.06818 2.14993 2.82166C2.27065 2.57514 2.45812 2.36744 2.69102 2.22219C2.92393 2.07693 3.19292 1.99995 3.46741 2H9.52963C9.7528 2.00033 9.97295 2.05159 10.1733 2.14987C10.3737 2.24814 10.549 2.39085 10.6859 2.56711L42.6274 43.6338C42.7958 43.8506 42.8999 44.1103 42.928 44.3833C42.9561 44.6564 42.9069 44.9318 42.7862 45.1783C42.6655 45.4249 42.478 45.6326 42.2451 45.7778C42.0122 45.9231 41.7432 46 41.4688 46H35.4065C35.1834 45.9997 34.9632 45.9484 34.7628 45.8501C34.5625 45.7519 34.3872 45.6092 34.2503 45.4329Z" stroke="#A9B2BD" stroke-width="2.75"/>
<path d="M42.023 2L2.91187 46" stroke="#A9B2BD" stroke-width="2.75" stroke-linecap="round"/>
</svg>
